<svg width="22" height="22" viewBox="0 0 22 22" fill="none" xmlns="http://www.w3.org/2000/svg">
<path d="M6 17.1126L9.28881 19.4225C9.71317 19.8075 10.668 20 11.3045 20H15.336C16.6091 20 17.9882 19.1338 18.3065 17.9788L20.8527 10.9528C21.3831 9.6054 20.4283 8.45045 18.837 8.45045H14.5933C13.9568 8.45045 13.4263 7.96921 13.5324 7.29549L14.0629 4.21561C14.2751 3.34939 13.6385 2.38693 12.6837 2.09819C11.835 1.80945 10.7741 2.19444 10.3497 2.77191L6 8.64294" stroke="#9A98A3" stroke-width="1.5" stroke-miterlimit="10"/>
<path d="M1 17.1838V7.81618C1 6.47794 1.6 6 3 6H4C5.4 6 6 6.47794 6 7.81618V17.1838C6 18.5221 5.4 19 4 19H3C1.6 19 1 18.5221 1 17.1838Z" stroke="#9A98A3" stroke-width="1.5" stroke-linecap="round" stroke-linejoin="round"/>
</svg>
