<svg width="23" height="22" viewBox="0 0 23 22" fill="none" xmlns="http://www.w3.org/2000/svg">
<path d="M11.8555 21.4174C17.8555 21.4174 22.7195 16.6403 22.7195 10.7474C22.7195 4.85451 17.8555 0.0773926 11.8555 0.0773926C5.85543 0.0773926 0.991455 4.85451 0.991455 10.7474C0.991455 16.6403 5.85543 21.4174 11.8555 21.4174Z" fill="url(#paint0_linear_1_111)"/>
<path d="M11.8577 10.4642C12.1868 10.4686 12.5135 10.4071 12.8176 10.2833C13.1217 10.1596 13.3969 9.97619 13.6264 9.74442C13.8619 9.51884 14.0482 9.24845 14.1737 8.94978C14.2993 8.6511 14.3615 8.33042 14.3566 8.00732C14.3616 7.6837 14.2993 7.36246 14.1735 7.06332C14.0477 6.76418 13.861 6.49343 13.6248 6.26767C13.1554 5.80751 12.5193 5.54907 11.8561 5.54907C11.1929 5.54907 10.5568 5.80751 10.0875 6.26767C9.85082 6.49357 9.66369 6.7646 9.53758 7.06412C9.41147 7.36363 9.34904 7.6853 9.35411 8.00937C9.34961 8.33264 9.41228 8.65341 9.53828 8.95208C9.66428 9.25075 9.85096 9.52105 10.0869 9.74647C10.3169 9.97805 10.5925 10.1611 10.897 10.2845C11.2015 10.4079 11.5284 10.4691 11.8577 10.4642Z" fill="white"/>
<path d="M16.167 13.3914C16.1529 13.1762 16.1247 12.9411 16.083 12.6926C16.0436 12.4555 15.9894 12.2209 15.9208 11.9903C15.8522 11.7639 15.7614 11.5447 15.6495 11.3356C15.5413 11.1285 15.4036 10.9376 15.2406 10.7686C15.0732 10.6003 14.8732 10.4666 14.6523 10.3756C14.4147 10.2778 14.1593 10.2287 13.9017 10.2312C13.7499 10.249 13.6076 10.3131 13.4949 10.4146C13.3734 10.4991 13.231 10.5969 13.0714 10.705C12.9011 10.8137 12.717 10.8998 12.5237 10.9612C12.0906 11.1149 11.6164 11.1149 11.1833 10.9612C10.9901 10.8995 10.806 10.8134 10.6356 10.705C10.4791 10.598 10.3352 10.5001 10.2116 10.4146C10.0991 10.3133 9.95721 10.2492 9.80576 10.2312C9.54817 10.2285 9.29274 10.2777 9.05521 10.3756C8.83429 10.4666 8.63422 10.6002 8.46687 10.7686C8.30484 10.9378 8.16804 11.1287 8.06056 11.3356C7.94869 11.5449 7.85786 11.7643 7.78934 11.9908C7.72122 12.2213 7.6674 12.4557 7.62817 12.6926C7.58644 12.9406 7.55776 13.1752 7.54367 13.3914C7.52959 13.6075 7.52333 13.8222 7.52333 14.044C7.51105 14.2971 7.54999 14.5502 7.63791 14.7885C7.72582 15.0267 7.86097 15.2456 8.03552 15.4322C8.20744 15.6027 8.41356 15.7363 8.6408 15.8245C8.86805 15.9127 9.11147 15.9535 9.35564 15.9445H14.3555C14.5996 15.9535 14.8429 15.9126 15.0701 15.8244C15.2972 15.7362 15.5032 15.6027 15.6751 15.4322C15.8497 15.2455 15.9849 15.0266 16.0728 14.7882C16.1607 14.5498 16.1996 14.2967 16.1873 14.0435C16.1878 13.8217 16.181 13.6019 16.167 13.3914Z" fill="white"/>
<defs>
<linearGradient id="paint0_linear_1_111" x1="0.991455" y1="10.7474" x2="22.8281" y2="10.7474" gradientUnits="userSpaceOnUse">
<stop offset="0.18" stop-color="#1DA4F9"/>
<stop offset="0.31" stop-color="#1C95F6"/>
<stop offset="0.55" stop-color="#1C80F1"/>
<stop offset="0.78" stop-color="#1B73EE"/>
<stop offset="1" stop-color="#1B6FED"/>
</linearGradient>
</defs>
</svg>
