<svg width="17" height="16" viewBox="0 0 17 16" fill="none" xmlns="http://www.w3.org/2000/svg">
<path id="Union" fill-rule="evenodd" clip-rule="evenodd" d="M12.6319 1.619H13.2793C15.0641 1.619 16.5162 3.07109 16.5162 4.85595V12.6246C16.5162 14.4095 15.0641 15.8616 13.2793 15.8616H4.21583C2.43098 15.8616 0.978882 14.4095 0.978882 12.6246V4.85595C0.978882 3.07109 2.43098 1.619 4.21583 1.619H4.86322V0.971608C4.86322 0.614249 5.1526 0.324219 5.51061 0.324219C5.86862 0.324219 6.158 0.614249 6.158 0.971608V1.619H11.3371V0.971608C11.3371 0.614249 11.6265 0.324219 11.9845 0.324219C12.3425 0.324219 12.6319 0.614249 12.6319 0.971608V1.619ZM2.27366 12.6246C2.27366 13.6954 3.14505 14.5668 4.21583 14.5668H13.2793C14.3501 14.5668 15.2215 13.6954 15.2215 12.6246V6.79812H2.27366V12.6246ZM12.6319 10.0351C12.9899 10.0351 13.2793 9.74503 13.2793 9.38767C13.2793 9.03032 12.9899 8.74028 12.6319 8.74028H4.86322C4.50521 8.74028 4.21583 9.03032 4.21583 9.38767C4.21583 9.74503 4.50521 10.0351 4.86322 10.0351H12.6319ZM8.10017 12.6246C8.45818 12.6246 8.74756 12.3346 8.74756 11.9772C8.74756 11.6199 8.45818 11.3298 8.10017 11.3298H4.86322C4.50521 11.3298 4.21583 11.6199 4.21583 11.9772C4.21583 12.3346 4.50521 12.6246 4.86322 12.6246H8.10017Z" fill="#949494"/>
</svg>
