<svg width="61" height="62" viewBox="0 0 61 62" fill="none" xmlns="http://www.w3.org/2000/svg">
<g id="diversity 1" clip-path="url(#clip0_17_905)">
<g id="Group">
<path id="Vector" d="M38.5085 16.4025L32.3376 27.2693L35.5915 27.8937H41.1537V17.5568L38.5085 16.4025Z" fill="#596C76"/>
<g id="Group_2">
<g id="Group_3">
<g id="Group_4">
<path id="Vector_2" d="M35.9263 8.09C36.5593 4.7817 34.4344 1.57817 31.1803 0.934699C27.9263 0.291232 24.7753 2.4515 24.1423 5.7598C23.5094 9.0681 25.6343 12.2716 28.8883 12.9151C32.1424 13.5586 35.2934 11.3983 35.9263 8.09Z" fill="#FFDCD5"/>
</g>
<path id="Vector_3" d="M21.5466 16.4009C23.0003 14.362 25.3619 13.0359 28.0283 13.0359H32.0282C36.4466 13.0359 40.0283 16.6773 40.0283 21.1693V26.2526C40.0283 26.8141 39.5806 27.2693 39.0283 27.2693H27.7189L21.5466 16.4009Z" fill="#26A6FE"/>
<path id="Vector_4" d="M30.0282 0.835938C29.5501 0.835938 29.0857 0.894436 28.6399 1.0019C31.2839 1.63895 33.2516 4.05309 33.2516 6.93594C33.2516 9.81878 31.2839 12.2329 28.6399 12.87C29.0857 12.9774 29.5501 13.0359 30.0282 13.0359C33.3419 13.0359 36.0282 10.3049 36.0282 6.93594C36.0282 3.567 33.3419 0.835938 30.0282 0.835938Z" fill="#FFC4BD"/>
<g id="Group_5">
<path id="Vector_5" d="M32.0282 13.0359H29.2371C33.6554 13.0359 37.2371 16.6773 37.2371 21.1693V26.2526C37.2371 26.8141 36.7893 27.2694 36.2371 27.2694H39.0282C39.5805 27.2694 40.0282 26.8141 40.0282 26.2526V21.1693C40.0282 16.6773 36.4464 13.0359 32.0282 13.0359Z" fill="#0593FC"/>
</g>
</g>
</g>
<g id="Group_6">
<g id="Group_7">
<path id="Vector_6" d="M12.2171 24.4239C15.0934 22.7529 16.0927 19.0277 14.4491 16.1035C12.8055 13.1792 9.14143 12.1633 6.26513 13.8343C3.38883 15.5053 2.38953 19.2304 4.03313 22.1547C5.67673 25.0789 9.34083 26.0949 12.2171 24.4239Z" fill="#D88A55"/>
<g id="Group_8">
<path id="Vector_7" d="M13.0652 31.3361C12.0552 29.0368 12.1064 26.2943 13.4396 23.9468L15.4396 20.425C17.6487 16.5348 22.5414 15.202 26.3678 17.448L30.6979 19.9896C31.1761 20.2703 31.3401 20.8921 31.0639 21.3785L25.4092 31.3359L13.0652 31.3361Z" fill="#97D729"/>
</g>
<path id="Vector_8" d="M4.0474 16.0858C3.80834 16.5068 3.626 16.945 3.49463 17.3911C5.35932 15.3817 8.39951 14.8563 10.8553 16.2978C13.311 17.7393 14.3836 20.6787 13.6043 23.3252C13.9187 22.9863 14.2008 22.6068 14.4398 22.1858C16.0966 19.2682 15.1134 15.5376 12.2437 13.853C9.37369 12.1686 5.7042 13.1682 4.0474 16.0858Z" fill="#C57A44"/>
<g id="Group_9">
<path id="Vector_9" d="M15.4398 20.425L14.0442 22.8825C16.2533 18.9924 21.1461 17.6595 24.9724 19.9055L29.3025 22.4472C29.7807 22.7278 29.9447 23.3496 29.6684 23.836L31.064 21.3785C31.3402 20.8921 31.1763 20.2705 30.6981 19.9896L26.368 17.448C22.5416 15.202 17.6489 16.5348 15.4398 20.425Z" fill="#8BC727"/>
</g>
</g>
</g>
<g id="Group_10">
<g id="Group_11">
<g id="Group_12">
<path id="Vector_10" d="M12.1895 48.853C15.0823 47.209 16.1165 43.492 14.4995 40.5509C12.8824 37.6098 9.22633 36.5584 6.33346 38.2024C3.44059 39.8464 2.40637 43.5634 4.02346 46.5045C5.64055 49.4456 9.29659 50.497 12.1895 48.853Z" fill="#FFDCD5"/>
</g>
<g id="Group_13">
<path id="Vector_11" d="M23.1723 27.3965L21.6262 27.093L14.4691 31.1873L13.1533 35.1802L13.644 39.0848L15.4396 42.2468C16.7728 44.5943 19.0832 46.0106 21.5469 46.2711L27.7188 35.4025L23.1723 27.3965Z" fill="#FE93BB"/>
</g>
<path id="Vector_12" d="M4.04757 46.5859C4.28663 47.0068 4.5687 47.3865 4.88312 47.7252C4.10382 45.0787 5.17632 42.1392 7.6321 40.6978C10.0878 39.2563 13.128 39.7817 14.9928 41.7912C14.8614 41.345 14.6791 40.9068 14.44 40.4859C12.7832 37.5682 9.11358 36.5686 6.2439 38.253C3.37386 39.9376 2.39065 43.6682 4.04757 46.5859Z" fill="#FFC4BD"/>
<g id="Group_14">
<path id="Vector_13" d="M13.4398 38.725L14.8354 41.1825C12.6263 37.2924 13.9373 32.3181 17.7636 30.0721L22.0936 27.5305C22.5719 27.2498 23.1835 27.4164 23.4597 27.9026L22.0641 25.4451C21.788 24.9587 21.1764 24.7922 20.6981 25.0729L16.368 27.6145C12.5417 29.8605 11.2307 34.8348 13.4398 38.725Z" fill="#FE5694"/>
</g>
</g>
</g>
<g id="Group_15">
<g id="Group_16">
<path id="Vector_14" d="M30.0281 61.8359C33.3418 61.8359 36.0281 59.1048 36.0281 55.7359C36.0281 52.3669 33.3418 49.6359 30.0281 49.6359C26.7144 49.6359 24.0281 52.3669 24.0281 55.7359C24.0281 59.1048 26.7144 61.8359 30.0281 61.8359Z" fill="#D88A55"/>
<g id="Group_17">
<path id="Vector_15" d="M32.3374 35.4025H23.2109L22.2407 36.1292V43.3583L23.8887 46.885L25.0722 49.06C25.9869 49.4301 26.9835 49.6357 28.0279 49.6357H32.0279C34.6941 49.6357 37.0558 48.3096 38.5095 46.2707L32.3374 35.4025Z" fill="#FEE45A"/>
</g>
<path id="Vector_16" d="M30.0281 61.8359C30.5062 61.8359 30.9706 61.7774 31.4164 61.6699C28.7724 61.0327 26.8047 58.6187 26.8047 55.7359C26.8047 52.853 28.7724 50.4389 31.4164 49.8018C30.9706 49.6944 30.5062 49.6359 30.0281 49.6359C26.7144 49.6359 24.0281 52.3669 24.0281 55.7359C24.0281 59.1048 26.7144 61.8359 30.0281 61.8359Z" fill="#C57A44"/>
<g id="Group_18">
<path id="Vector_17" d="M28.028 49.6358H30.8192C26.4008 49.6358 22.8191 45.9944 22.8191 41.5025V36.4191C22.8191 35.8576 23.2669 35.4025 23.8191 35.4025H21.028C20.4757 35.4025 20.0281 35.8576 20.0281 36.4191V41.5025C20.0281 45.9944 23.6098 49.6358 28.028 49.6358Z" fill="#FAC600"/>
</g>
</g>
</g>
<g id="Group_19">
<g id="Group_20">
<g id="Group_21">
<path id="Vector_18" d="M50.8127 49.6359C54.1265 49.6359 56.8127 46.9048 56.8127 43.5359C56.8127 40.167 54.1265 37.4359 50.8127 37.4359C47.499 37.4359 44.8127 40.167 44.8127 43.5359C44.8127 46.9048 47.499 49.6359 50.8127 49.6359Z" fill="#FFDCD5"/>
</g>
<path id="Vector_19" d="M46.9909 31.3357C48.0008 33.6351 47.9496 36.3774 46.6165 38.725L44.6166 42.2468C42.4075 46.137 37.5147 47.4698 33.6884 45.2238L29.3583 42.6822C28.8801 42.4015 28.7161 41.7797 28.9923 41.2933L34.6469 31.3359L46.9909 31.3357Z" fill="#E30256"/>
<path id="Vector_20" d="M56.0088 46.5859C56.2478 46.165 56.4302 45.7268 56.5615 45.2806C54.6969 47.29 51.6567 47.8154 49.2009 46.3739C46.7452 44.9326 45.6726 41.993 46.4519 39.3466C46.1375 39.6854 45.8554 40.065 45.6163 40.4859C43.9595 43.4034 44.9428 47.1342 47.8124 48.8186C50.6825 50.5031 54.352 49.5035 56.0088 46.5859Z" fill="#FFC4BD"/>
<path id="Vector_21" d="M44.6165 42.2468L46.0121 39.7893C43.803 43.6794 38.9102 45.0123 35.0839 42.7663L30.7538 40.2246C30.2755 39.9439 30.1117 39.3221 30.3879 38.8358L28.9923 41.2933C28.7162 41.7795 28.88 42.4013 29.3583 42.6822L33.6883 45.2238C37.5147 47.4698 42.4074 46.137 44.6165 42.2468Z" fill="#B30059"/>
</g>
</g>
<g id="Group_22">
<g id="Group_23">
<path id="Vector_22" d="M56.4805 21.0654C57.5343 17.8717 55.8419 14.4141 52.7005 13.3428C49.5591 12.2715 46.1583 13.9921 45.1045 17.1858C44.0508 20.3796 45.7431 23.8371 48.8845 24.9084C52.0259 25.9797 55.4268 24.2592 56.4805 21.0654Z" fill="#D88A55"/>
<g id="Group_24">
<path id="Vector_23" d="M46.6167 23.9468L44.6168 20.425C43.2837 18.0774 40.9732 16.6612 38.5096 16.4006L38.5085 16.4024C39.4636 17.742 40.0282 19.3882 40.0282 21.1692V26.2526C40.0282 26.8141 39.5804 27.2694 39.0282 27.2694H32.3376L37.9923 37.2268C38.2684 37.713 38.88 37.8797 39.3583 37.599L43.6884 35.0573C47.5148 32.8112 48.8258 27.8369 46.6167 23.9468Z" fill="#596C76"/>
</g>
<path id="Vector_24" d="M56.0089 16.0859C55.7699 15.665 55.4878 15.2852 55.1734 14.9465C55.9527 17.593 54.8802 20.5326 52.4244 21.9739C49.9687 23.4154 46.9285 22.89 45.0637 20.8806C45.1951 21.3268 45.3774 21.765 45.6165 22.1859C47.2733 25.1035 50.9429 26.1031 53.8126 24.4187C56.6826 22.7342 57.6658 19.0035 56.0089 16.0859Z" fill="#C57A44"/>
<g id="Group_25">
<path id="Vector_25" d="M46.6168 23.9468L45.2212 21.4893C47.4303 25.3793 46.1193 30.3537 42.2931 32.5996L37.963 35.1412C37.4846 35.422 36.873 35.2554 36.5969 34.7691L37.9925 37.2267C38.2686 37.713 38.8802 37.8796 39.3586 37.5989L43.6886 35.0572C47.5149 32.8112 48.8259 27.837 46.6168 23.9468Z" fill="#465A61"/>
</g>
</g>
</g>
</g>
</g>
<defs>
<clipPath id="clip0_17_905">
<rect width="60" height="61" fill="white" transform="translate(0.0280762 0.835938)"/>
</clipPath>
</defs>
</svg>
