<svg width="13" height="13" viewBox="0 0 13 13" fill="none" xmlns="http://www.w3.org/2000/svg">
<g id="box-dollar 1" clip-path="url(#clip0_2_1705)">
<path id="Vector" d="M11.9238 5.60547H1.92383C1.64883 5.60547 1.42383 5.83047 1.42383 6.10547V10.1055C1.42383 11.4855 2.54383 12.6055 3.92383 12.6055H9.92383C11.3038 12.6055 12.4238 11.4855 12.4238 10.1055V6.10547C12.4238 5.83047 12.1988 5.60547 11.9238 5.60547ZM7.61383 11.1055H7.42383C7.42383 11.3805 7.19883 11.6055 6.92383 11.6055C6.64883 11.6055 6.42383 11.3805 6.42383 11.1055H6.28883C5.75383 11.1055 5.25883 10.8205 4.98883 10.3555C4.84883 10.1155 4.93383 9.81047 5.17383 9.67047C5.41383 9.53047 5.71883 9.61547 5.85883 9.85047C5.94883 10.0055 6.11383 10.1005 6.29383 10.1005H7.61383C7.78383 10.1005 7.92383 9.96047 7.92383 9.79047C7.92383 9.63547 7.81383 9.50547 7.66383 9.48047L6.01883 9.20547C5.38383 9.10047 4.92383 8.55547 4.92383 7.91047C4.92383 7.18547 5.51383 6.60047 6.23383 6.60047H6.42383C6.42383 6.32547 6.64883 6.10047 6.92383 6.10047C7.19883 6.10047 7.42383 6.32547 7.42383 6.60047H7.55883C8.09383 6.60047 8.58883 6.88547 8.85883 7.35047C8.99883 7.59047 8.91383 7.89547 8.67383 8.03547C8.43383 8.17547 8.12883 8.09047 7.98883 7.85547C7.89883 7.70047 7.73383 7.60547 7.55383 7.60547H6.23383C6.06383 7.60547 5.92383 7.74547 5.92383 7.91547C5.92383 8.07047 6.03383 8.20047 6.18383 8.22547L7.82883 8.50047C8.46383 8.60547 8.92383 9.15047 8.92383 9.79547C8.92383 10.5205 8.33383 11.1055 7.61383 11.1055ZM12.9238 3.22047C12.8738 4.01047 12.2138 4.62047 11.4238 4.61047H2.42383C1.59383 4.61047 0.923828 3.94047 0.923828 3.11047C0.923828 1.72547 2.04383 0.605469 3.42383 0.605469C3.42383 0.605469 10.4938 0.605469 10.5288 0.605469C11.9088 0.665469 12.9788 1.83547 12.9188 3.21547L12.9238 3.22047Z" fill="white"/>
</g>
<defs>
<clipPath id="clip0_2_1705">
<rect width="12" height="12" fill="white" transform="translate(0.923828 0.605469)"/>
</clipPath>
</defs>
</svg>
