<svg width="13" height="14" viewBox="0 0 13 14" fill="none" xmlns="http://www.w3.org/2000/svg">
<g id="donate 1" clip-path="url(#clip0_2_1898)">
<path id="Vector" d="M6.22388 11.0972C8.98088 11.0972 11.2239 8.66733 11.2239 5.68058C11.2239 2.69383 8.98088 0.263916 6.22388 0.263916C3.46688 0.263916 1.22388 2.69383 1.22388 5.68058C1.22388 8.66733 3.46688 11.0972 6.22388 11.0972ZM6.22388 1.34725C8.42938 1.34725 10.2239 3.29129 10.2239 5.68058C10.2239 8.06987 8.42938 10.0139 6.22388 10.0139C4.01838 10.0139 2.22388 8.06987 2.22388 5.68058C2.22388 3.29129 4.01838 1.34725 6.22388 1.34725ZM12.2239 11.3681C12.2239 12.4135 11.4389 13.2639 10.4739 13.2639H1.97388C1.00888 13.2639 0.223877 12.4135 0.223877 11.3681C0.223877 10.7755 0.484877 10.2095 0.921877 9.85304C1.14288 9.67321 1.45638 9.72196 1.62188 9.95975C1.78788 10.1986 1.74388 10.5382 1.52338 10.7181C1.33288 10.873 1.22388 11.1103 1.22388 11.3675C1.22388 11.8155 1.56038 12.18 1.97388 12.18H10.4739C10.8874 12.18 11.2239 11.8155 11.2239 11.3675C11.2239 11.1097 11.1144 10.873 10.9239 10.7175C10.7034 10.5372 10.6594 10.1975 10.8259 9.95867C10.9914 9.72087 11.3054 9.67212 11.5259 9.8525C11.9694 10.2154 12.2239 10.7674 12.2239 11.3681ZM7.22388 6.76392C7.22388 6.55862 7.08838 6.38583 6.90188 6.35171L5.38138 6.07762C4.71038 5.95629 4.22388 5.33337 4.22388 4.59725C4.22388 3.70133 4.89688 2.97225 5.72388 2.97225V2.43058C5.72388 2.13104 5.94788 1.88892 6.22388 1.88892C6.49988 1.88892 6.72388 2.13104 6.72388 2.43058V2.97225H6.85788C7.39138 2.97225 7.88938 3.28317 8.15688 3.78421C8.29488 4.04367 8.21338 4.37462 7.97438 4.52412C7.73588 4.67471 7.42988 4.58533 7.29138 4.32696C7.20188 4.15904 7.03588 4.05558 6.85788 4.05558H5.72388C5.44838 4.05558 5.22388 4.29825 5.22388 4.59725C5.22388 4.80254 5.35938 4.97533 5.54588 5.00946L7.06638 5.28354C7.73738 5.40487 8.22388 6.02779 8.22388 6.76392C8.22388 7.65983 7.55088 8.38892 6.72388 8.38892V8.93058C6.72388 9.23012 6.49988 9.47225 6.22388 9.47225C5.94788 9.47225 5.72388 9.23012 5.72388 8.93058V8.38892H5.58988C5.05638 8.38892 4.55838 8.078 4.29088 7.57696C4.15288 7.3175 4.23438 6.98654 4.47338 6.83704C4.71138 6.68646 5.01788 6.77583 5.15638 7.03421C5.24588 7.20212 5.41188 7.30558 5.58988 7.30558H6.72388C6.99938 7.30558 7.22388 7.06292 7.22388 6.76392Z" fill="white"/>
</g>
<defs>
<clipPath id="clip0_2_1898">
<rect width="12" height="13" fill="white" transform="translate(0.223877 0.263916)"/>
</clipPath>
</defs>
</svg>
