<svg width="25" height="25" viewBox="0 0 25 25" fill="none" xmlns="http://www.w3.org/2000/svg">
<path d="M18.8555 4.87256H6.85547C6.85547 7.49756 4.98047 6.74756 4.98047 9.74756V20.9976C4.98047 21.6938 5.25703 22.3614 5.74931 22.8537C6.2416 23.346 6.90928 23.6226 7.60547 23.6226H18.1055C18.8017 23.6226 19.4693 23.346 19.9616 22.8537C20.4539 22.3614 20.7305 21.6938 20.7305 20.9976V9.74756C20.7305 6.74756 18.8555 7.49756 18.8555 4.87256Z" fill="#F7F7F7"/>
<path d="M20.7305 9.74756V20.9976C20.7307 21.3424 20.663 21.6838 20.5312 22.0024C20.3993 22.321 20.206 22.6105 19.9622 22.8543C19.7184 23.0981 19.4289 23.2914 19.1103 23.4233C18.7917 23.5551 18.4503 23.6228 18.1055 23.6226H7.60547C6.95209 23.6238 6.32189 23.3805 5.83887 22.9405C5.35585 22.5006 5.05498 21.8957 4.99547 21.2451C5.22853 21.6287 5.55676 21.9456 5.94835 22.1651C6.33994 22.3845 6.78159 22.499 7.23047 22.4976H16.2305C16.5753 22.4978 16.9167 22.4301 17.2353 22.2983C17.5539 22.1664 17.8434 21.9731 18.0872 21.7293C18.331 21.4855 18.5243 21.196 18.6562 20.8774C18.788 20.5588 18.8557 20.2173 18.8555 19.8726V9.74756C18.8555 6.74756 16.9805 7.49756 16.9805 4.87256H18.8555C18.8555 7.49756 20.7305 6.74756 20.7305 9.74756Z" fill="#E0E0E0"/>
<path d="M6.85547 18.3726V20.6226C6.85547 21.451 8.53442 22.1226 10.6055 22.1226C12.6765 22.1226 14.3555 21.451 14.3555 20.6226V18.3726H6.85547Z" fill="#FFD54F"/>
<path d="M12.4805 18.3726V19.8365C12.4821 20.1139 12.3807 20.3821 12.1957 20.589C12.0108 20.7959 11.7557 20.9267 11.4797 20.956C11.1994 20.9831 10.9067 20.9976 10.6055 20.9976C8.53547 20.9976 6.85547 20.3263 6.85547 19.4976V20.6226C6.85547 21.4513 8.53547 22.1226 10.6055 22.1226C12.6755 22.1226 14.3555 21.4513 14.3555 20.6226V18.3726H12.4805Z" fill="#FFCA28"/>
<path d="M10.6055 19.8726C12.6765 19.8726 14.3555 19.201 14.3555 18.3726C14.3555 17.5441 12.6765 16.8726 10.6055 16.8726C8.5344 16.8726 6.85547 17.5441 6.85547 18.3726C6.85547 19.201 8.5344 19.8726 10.6055 19.8726Z" fill="#FFB74D"/>
<path d="M12.4264 15.8328L11.2184 17.731C10.7736 18.4299 11.8296 19.8978 13.5768 21.0097C15.3239 22.1217 17.1011 22.4565 17.5458 21.7576L18.7538 19.8593L12.4264 15.8328Z" fill="#FFD54F"/>
<path d="M12.8555 13.8726C14.9265 13.8726 16.6055 12.1936 16.6055 10.1226C16.6055 8.05149 14.9265 6.37256 12.8555 6.37256C10.7844 6.37256 9.10547 8.05149 9.10547 10.1226C9.10547 12.1936 10.7844 13.8726 12.8555 13.8726Z" fill="#FFB74D"/>
<path d="M16.6055 10.1226C16.6051 11.117 16.2099 12.0706 15.5067 12.7738C14.8035 13.477 13.8499 13.8722 12.8555 13.8726C12.5391 13.8729 12.224 13.8326 11.918 13.7526C12.7229 13.545 13.436 13.0757 13.9451 12.4186C14.4542 11.7615 14.7305 10.9538 14.7305 10.1226C14.7305 9.2913 14.4542 8.48362 13.9451 7.82652C13.436 7.16942 12.7229 6.70017 11.918 6.49256C12.224 6.41256 12.5391 6.37223 12.8555 6.37256C13.8499 6.37292 14.8035 6.76812 15.5067 7.4713C16.2099 8.17449 16.6051 9.12811 16.6055 10.1226Z" fill="#FFA726"/>
<path d="M13.2305 9.74756H12.4805C12.381 9.74756 12.2856 9.70805 12.2153 9.63772C12.145 9.5674 12.1055 9.47201 12.1055 9.37256C12.1055 9.2731 12.145 9.17772 12.2153 9.10739C12.2856 9.03707 12.381 8.99756 12.4805 8.99756H13.9805C14.0799 8.99756 14.1753 8.95805 14.2456 8.88772C14.316 8.8174 14.3555 8.72201 14.3555 8.62256C14.3555 8.5231 14.316 8.42772 14.2456 8.35739C14.1753 8.28707 14.0799 8.24756 13.9805 8.24756H13.2305V7.87256C13.2305 7.7731 13.191 7.67772 13.1206 7.60739C13.0503 7.53707 12.9549 7.49756 12.8555 7.49756C12.756 7.49756 12.6606 7.53707 12.5903 7.60739C12.52 7.67772 12.4805 7.7731 12.4805 7.87256V8.24756C12.1821 8.24756 11.896 8.36608 11.685 8.57706C11.474 8.78804 11.3555 9.07419 11.3555 9.37256C11.3555 9.67093 11.474 9.95708 11.685 10.1681C11.896 10.379 12.1821 10.4976 12.4805 10.4976H13.2305C13.3299 10.4976 13.4253 10.5371 13.4956 10.6074C13.566 10.6777 13.6055 10.7731 13.6055 10.8726C13.6055 10.972 13.566 11.0674 13.4956 11.1377C13.4253 11.2081 13.3299 11.2476 13.2305 11.2476H11.7305C11.631 11.2476 11.5356 11.2871 11.4653 11.3574C11.395 11.4277 11.3555 11.5231 11.3555 11.6226C11.3555 11.722 11.395 11.8174 11.4653 11.8877C11.5356 11.9581 11.631 11.9976 11.7305 11.9976H12.4805V12.3726C12.4805 12.472 12.52 12.5674 12.5903 12.6377C12.6606 12.7081 12.756 12.7476 12.8555 12.7476C12.9549 12.7476 13.0503 12.7081 13.1206 12.6377C13.191 12.5674 13.2305 12.472 13.2305 12.3726V11.9976C13.5288 11.9976 13.815 11.879 14.026 11.6681C14.2369 11.4571 14.3555 11.1709 14.3555 10.8726C14.3555 10.5742 14.2369 10.288 14.026 10.0771C13.815 9.86608 13.5288 9.74756 13.2305 9.74756Z" fill="#EEEEEE"/>
<path d="M17.1719 18.8526L16.386 20.0876C16.2385 20.3226 16.0089 20.4945 15.7418 20.5698C15.4747 20.645 15.1892 20.6184 14.9407 20.4951C14.6896 20.3676 14.435 20.2225 14.1808 20.0608C12.4344 18.9495 11.3774 17.4812 11.8223 16.782L11.2184 17.7311C10.7734 18.4303 11.8304 19.8986 13.5768 21.0099C15.3232 22.1212 17.1009 22.4569 17.5458 21.7576L18.1498 20.8085L18.7538 19.8594L17.1719 18.8526Z" fill="#FFCA28"/>
<path d="M18.7628 19.857C19.2076 19.1578 18.1513 17.6894 16.4033 16.5773C14.6553 15.4651 12.8776 15.1303 12.4328 15.8295C11.9879 16.5287 13.0443 17.9971 14.7923 19.1093C16.5403 20.2214 18.3179 20.5562 18.7628 19.857Z" fill="#FFB74D"/>
<path d="M19.2305 1.87256H6.48047C6.06626 1.87256 5.73047 2.20834 5.73047 2.62256V4.12256C5.73047 4.53677 6.06626 4.87256 6.48047 4.87256H19.2305C19.6447 4.87256 19.9805 4.53677 19.9805 4.12256V2.62256C19.9805 2.20834 19.6447 1.87256 19.2305 1.87256Z" fill="#EF5350"/>
<path d="M19.9805 2.62256V4.12256C19.9799 4.32129 19.9007 4.51172 19.7602 4.65224C19.6196 4.79277 19.4292 4.87197 19.2305 4.87256H17.3555C17.5542 4.87197 17.7446 4.79277 17.8852 4.65224C18.0257 4.51172 18.1049 4.32129 18.1055 4.12256V2.62256C18.1049 2.42383 18.0257 2.2334 17.8852 2.09287C17.7446 1.95235 17.5542 1.87314 17.3555 1.87256H19.2305C19.4292 1.87314 19.6196 1.95235 19.7602 2.09287C19.9007 2.2334 19.9799 2.42383 19.9805 2.62256Z" fill="#E53935"/>
</svg>
