<svg width="14" height="13" viewBox="0 0 14 13" fill="none" xmlns="http://www.w3.org/2000/svg">
<path d="M7.08848 0.00744629C5.86126 0.00744629 4.6616 0.371359 3.6412 1.05317C2.62081 1.73497 1.82551 2.70405 1.35587 3.83785C0.886233 4.97166 0.763355 6.21926 1.00277 7.4229C1.24219 8.62654 1.83315 9.73215 2.70093 10.5999C3.5687 11.4677 4.67432 12.0587 5.87796 12.2981C7.08159 12.5375 8.3292 12.4146 9.463 11.945C10.5968 11.4753 11.5659 10.68 12.2477 9.65965C12.9295 8.63926 13.2934 7.4396 13.2934 6.21238C13.2928 4.56692 12.6389 2.98903 11.4753 1.82552C10.3118 0.662002 8.73394 0.00806957 7.08848 0.00744629ZM6.46763 11.1321C5.26827 10.9827 4.16483 10.4002 3.3649 9.49417C2.56497 8.58813 2.12368 7.42101 2.12406 6.21238C2.12617 5.83829 2.16995 5.4656 2.25458 5.1012L5.22712 8.07374V8.69458C5.22805 9.0233 5.35904 9.33829 5.59148 9.57073C5.82392 9.80317 6.13891 9.93417 6.46763 9.9351V11.1321ZM10.7489 9.55648C10.6702 9.30631 10.5138 9.08779 10.3023 8.93276C10.0908 8.77773 9.83527 8.69428 9.57304 8.69458H8.94984V6.82734C8.94953 6.66278 8.88402 6.50505 8.76765 6.38868C8.65129 6.27232 8.49356 6.20681 8.32899 6.2065H4.60627V4.97069H5.84679C6.01135 4.97037 6.16908 4.90486 6.28545 4.7885C6.40181 4.67214 6.46732 4.5144 6.46763 4.34984V3.10932H7.70344C8.03318 3.10995 8.34968 2.97964 8.58339 2.74703C8.8171 2.51442 8.9489 2.19854 8.94984 1.86881V1.61483C9.69232 1.91395 10.3512 2.38859 10.8701 2.99809C11.3891 3.60758 11.7525 4.33378 11.9293 5.11447C12.1062 5.89516 12.0912 6.70708 11.8856 7.4807C11.68 8.25432 11.29 8.96658 10.7489 9.55648Z" fill="#949494"/>
</svg>
