<svg width="16" height="18" viewBox="0 0 16 18" fill="none" xmlns="http://www.w3.org/2000/svg">
<path id="Path 295" d="M12.9657 12.061C12.3458 12.0637 11.7493 12.298 11.2934 12.718L5.21005 9.17718C5.2571 8.98145 5.28284 8.7812 5.28684 8.57994C5.28284 8.37867 5.2571 8.17843 5.21005 7.9827L11.2251 4.47604C11.6558 4.87463 12.2106 5.11273 12.7962 5.1503C13.3818 5.18788 13.9624 5.02262 14.4405 4.68234C14.9186 4.34206 15.2648 3.84752 15.4211 3.28191C15.5774 2.71629 15.5341 2.11412 15.2985 1.57669C15.0629 1.03926 14.6494 0.599357 14.1275 0.330989C13.6057 0.0626222 13.0074 -0.0178369 12.4332 0.103147C11.859 0.224131 11.344 0.539175 10.9748 0.995283C10.6056 1.45139 10.4048 2.02073 10.406 2.60753C10.41 2.8088 10.4358 3.00904 10.4828 3.20477L4.46777 6.71143C4.10345 6.37034 3.64737 6.1432 3.15563 6.05795C2.6639 5.97271 2.15798 6.03307 1.7001 6.23162C1.24223 6.43017 0.852394 6.75824 0.578552 7.17547C0.30471 7.59269 0.158813 8.08087 0.158813 8.57994C0.158813 9.07901 0.30471 9.56719 0.578552 9.98441C0.852394 10.4016 1.24223 10.7297 1.7001 10.9283C2.15798 11.1268 2.6639 11.1872 3.15563 11.1019C3.64737 11.0167 4.10345 10.7895 4.46777 10.4484L10.5426 13.9978C10.4984 14.1793 10.4754 14.3655 10.4743 14.5523C10.4743 15.0451 10.6204 15.5268 10.8942 15.9365C11.1679 16.3462 11.557 16.6655 12.0123 16.854C12.4675 17.0426 12.9684 17.092 13.4517 16.9958C13.935 16.8997 14.3789 16.6624 14.7273 16.314C15.0757 15.9656 15.313 15.5217 15.4091 15.0384C15.5053 14.5551 15.4559 14.0542 15.2674 13.5989C15.0788 13.1437 14.7595 12.7546 14.3498 12.4809C13.9401 12.2071 13.4584 12.061 12.9657 12.061ZM12.9657 1.75433C13.1344 1.75433 13.2994 1.80437 13.4397 1.89812C13.58 1.99187 13.6893 2.12512 13.7539 2.28103C13.8185 2.43693 13.8354 2.60848 13.8025 2.77398C13.7695 2.93949 13.6883 3.09151 13.569 3.21084C13.4496 3.33016 13.2976 3.41142 13.1321 3.44434C12.9666 3.47726 12.795 3.46036 12.6391 3.39579C12.4832 3.33121 12.35 3.22185 12.2562 3.08154C12.1625 2.94124 12.1124 2.77628 12.1124 2.60753C12.1124 2.38125 12.2023 2.16423 12.3623 2.00423C12.5224 1.84422 12.7394 1.75433 12.9657 1.75433ZM2.72724 9.43314C2.55849 9.43314 2.39353 9.3831 2.25323 9.28935C2.11292 9.1956 2.00356 9.06235 1.93898 8.90644C1.87441 8.75054 1.85751 8.57899 1.89043 8.41349C1.92335 8.24798 2.00461 8.09596 2.12394 7.97663C2.24326 7.85731 2.39528 7.77605 2.56079 7.74313C2.72629 7.71021 2.89784 7.72711 3.05375 7.79168C3.20965 7.85626 3.3429 7.96562 3.43665 8.10593C3.5304 8.24623 3.58044 8.41119 3.58044 8.57994C3.58044 8.80622 3.49055 9.02324 3.33054 9.18324C3.17054 9.34325 2.95352 9.43314 2.72724 9.43314ZM12.9657 15.4226C12.7969 15.4226 12.6319 15.3726 12.4916 15.2788C12.3513 15.1851 12.242 15.0518 12.1774 14.8959C12.1128 14.74 12.0959 14.5685 12.1288 14.403C12.1618 14.2375 12.243 14.0854 12.3623 13.9661C12.4817 13.8468 12.6337 13.7655 12.7992 13.7326C12.9647 13.6997 13.1363 13.7166 13.2922 13.7812C13.4481 13.8457 13.5813 13.9551 13.6751 14.0954C13.7688 14.2357 13.8189 14.4007 13.8189 14.5694C13.8189 14.7957 13.729 15.0127 13.569 15.1727C13.4089 15.3327 13.1919 15.4226 12.9657 15.4226Z" fill="#101010"/>
</svg>
