<svg xmlns="http://www.w3.org/2000/svg" viewBox="0 0 24 24" id="schedule-image"><path fill="#2D98D4" d="M18 2H2C.897 2 0 2.897 0 4v11c0 1.103.897 2 2 2h16c1.103 0 2-.897 2-2V4c0-1.103-.897-2-2-2z"></path><path fill="#FFF" d="M18 2H2C.897 2 0 2.897 0 4v.25c0-1.103.897-2 2-2h16c1.103 0 2 .897 2 2V4c0-1.103-.897-2-2-2z" opacity=".2"></path><path fill="#E6E6E5" d="m20 14.505-7.5-7.487L2.56 17H18c1.103 0 2-.897 2-2v-.495z"></path><path fill="#F3F3F3" d="M6 10.018.183 15.835A2.001 2.001 0 0 0 2 17h10.982L6 10.018z"></path><path fill="#010101" d="M2 17h16c1.103 0 2-.897 2-2v-.25c0 1.103-.897 2-2 2H2c-1.103 0-2-.897-2-2V15c0 1.103.897 2 2 2z" opacity=".1"></path><circle cx="8" cy="6.018" r="1.982" fill="#FFCF51"></circle><circle cx="18.5" cy="16.5" r="5.5" fill="#0097CF" transform="rotate(-1.23 18.5 16.5)"></circle><path fill="#010101" d="M18.5 21.75a5.622 5.622 0 0 1-5.263-3.654 5.5 5.5 0 0 0 10.526 0A5.622 5.622 0 0 1 18.5 21.75z" opacity=".1"></path><path fill="#FFF" d="M18.5 11.25a5.622 5.622 0 0 1 5.263 3.653C23.078 12.645 20.982 11 18.5 11s-4.578 1.645-5.263 3.903A5.622 5.622 0 0 1 18.5 11.25z" opacity=".2"></path><path fill="#FFF" d="M19.646 18.353 18 16.707V13h1v3.293l1.354 1.353z"></path><linearGradient id="a" x1="18.108" x2="22.372" y1="14.461" y2="18.726" gradientUnits="userSpaceOnUse"><stop offset="0" stop-color="#010101" stop-opacity=".1"></stop><stop offset="1" stop-color="#010101" stop-opacity="0"></stop></linearGradient><path fill="url(#a)" d="M19 13v3.293l1.354 1.353-.708.707 2.371 2.371a5.497 5.497 0 0 0 1.814-2.893L19 13z"></path><linearGradient id="b" x1="-.49" x2="24.649" y1="4.608" y2="16.331" gradientUnits="userSpaceOnUse"><stop offset="0" stop-color="#FFF" stop-opacity=".2"></stop><stop offset="1" stop-color="#FFF" stop-opacity="0"></stop></linearGradient><path fill="url(#b)" d="M20 11.208V4c0-1.103-.897-2-2-2H2C.897 2 0 2.897 0 4v11c0 1.103.897 2 2 2h11.029a5.496 5.496 0 0 0 10.97-.618A5.501 5.501 0 0 0 20 11.208z"></path></svg>