<svg width="24" height="24" viewBox="0 0 24 24" fill="none" xmlns="http://www.w3.org/2000/svg">
<path d="M8.99956 5.35703C8.88069 5.35722 8.76446 5.32208 8.66561 5.25608C8.56676 5.19007 8.48976 5.09617 8.44438 4.98632L7.55153 2.8311C7.4905 2.68386 7.49046 2.5184 7.55142 2.37113C7.61238 2.22386 7.72934 2.10684 7.87658 2.0458C7.94949 2.01558 8.02764 2.00002 8.10656 2C8.18548 1.99998 8.26363 2.01551 8.33656 2.04569C8.48383 2.10665 8.60085 2.22362 8.66188 2.37086L9.55473 4.52607C9.59259 4.61738 9.60733 4.71661 9.59767 4.81497C9.588 4.91334 9.55421 5.0078 9.4993 5.08998C9.44439 5.17216 9.37006 5.23953 9.28289 5.28612C9.19571 5.3327 9.09839 5.35706 8.99956 5.35703ZM15.893 21.9997C15.7741 21.9999 15.6579 21.9648 15.559 21.8988C15.4602 21.8327 15.3832 21.7389 15.3378 21.629L14.445 19.4738C14.3839 19.3265 14.3839 19.1611 14.4449 19.0138C14.5058 18.8665 14.6228 18.7495 14.77 18.6885C14.9173 18.6274 15.0827 18.6274 15.23 18.6884C15.3773 18.7493 15.4943 18.8663 15.5553 19.0135L16.4482 21.1687C16.486 21.26 16.5008 21.3593 16.4911 21.4576C16.4814 21.556 16.4477 21.6505 16.3927 21.7327C16.3378 21.8148 16.2635 21.8822 16.1763 21.9288C16.0892 21.9754 15.9918 21.9997 15.893 21.9997ZM2.60121 16.4936C2.46215 16.4937 2.32737 16.4455 2.21985 16.3574C2.11232 16.2692 2.03871 16.1465 2.01156 16.0101C1.98441 15.8737 2.00541 15.7321 2.07097 15.6095C2.13653 15.4869 2.2426 15.3908 2.37109 15.3376L4.5263 14.4447C4.67354 14.3837 4.839 14.3837 4.98627 14.4446C5.13354 14.5056 5.25057 14.6226 5.3116 14.7698C5.37263 14.917 5.37267 15.0825 5.31171 15.2298C5.25075 15.377 5.13378 15.4941 4.98654 15.5551L2.83133 16.4479C2.75836 16.4781 2.68017 16.4936 2.60121 16.4936ZM19.2433 9.60077C19.1042 9.60085 18.9694 9.5527 18.8619 9.46453C18.7544 9.37635 18.6808 9.25361 18.6536 9.11723C18.6265 8.98085 18.6475 8.83928 18.713 8.71665C18.7786 8.59402 18.8847 8.49793 19.0132 8.44475L21.1684 7.5519C21.3142 7.49805 21.4752 7.50274 21.6176 7.56499C21.76 7.62724 21.8728 7.74221 21.9323 7.8858C21.9919 8.02939 21.9935 8.19044 21.9369 8.3352C21.8802 8.47995 21.7698 8.59716 21.6286 8.66226L19.4734 9.55511C19.4003 9.58499 19.3222 9.60049 19.2433 9.60077ZM14.9995 5.35703C14.9008 5.35696 14.8035 5.33253 14.7164 5.28591C14.6293 5.23928 14.5551 5.1719 14.5002 5.08973C14.4454 5.00756 14.4117 4.91314 14.402 4.81482C14.3924 4.7165 14.4071 4.61733 14.445 4.52607L15.3378 2.37086C15.3989 2.22362 15.5159 2.10665 15.6631 2.04569C15.8104 1.98473 15.9759 1.98477 16.1231 2.0458C16.2704 2.10684 16.3873 2.22386 16.4483 2.37113C16.5092 2.5184 16.5092 2.68386 16.4482 2.8311L15.5553 4.98632C15.5098 5.09618 15.4326 5.19005 15.3337 5.25604C15.2348 5.32204 15.1185 5.35718 14.9995 5.35703ZM8.10611 21.9997C8.00732 21.9996 7.91007 21.9752 7.82298 21.9286C7.73588 21.882 7.66163 21.8146 7.60679 21.7324C7.55195 21.6502 7.51822 21.5558 7.50858 21.4575C7.49894 21.3592 7.51369 21.26 7.55153 21.1687L8.44438 19.0135C8.50541 18.8663 8.62243 18.7493 8.76971 18.6884C8.91698 18.6274 9.08243 18.6274 9.22968 18.6885C9.37692 18.7495 9.49389 18.8665 9.55485 19.0138C9.6158 19.1611 9.61576 19.3265 9.55473 19.4738L8.66188 21.629C8.56575 21.8597 8.34224 21.9997 8.10611 21.9997ZM4.75582 9.60077C4.67705 9.60085 4.59904 9.58533 4.5263 9.55511L2.37109 8.66226C2.22384 8.60122 2.10688 8.4842 2.04592 8.33693C1.98496 8.18966 1.985 8.0242 2.04603 7.87696C2.10706 7.72972 2.22409 7.61275 2.37136 7.55179C2.51863 7.49083 2.68409 7.49087 2.83133 7.5519L4.98654 8.44475C5.11508 8.49795 5.22117 8.59409 5.28673 8.71678C5.35228 8.83948 5.37323 8.98111 5.34601 9.11753C5.31878 9.25395 5.24506 9.37669 5.13743 9.46482C5.0298 9.55294 4.89493 9.60099 4.75582 9.60077ZM21.3979 16.4936C21.3191 16.4937 21.2411 16.4782 21.1684 16.4479L19.0132 15.5551C18.9403 15.5249 18.874 15.4806 18.8182 15.4248C18.7624 15.369 18.7182 15.3027 18.688 15.2298C18.6578 15.1568 18.6423 15.0787 18.6423 14.9998C18.6423 14.9209 18.6579 14.8427 18.6881 14.7698C18.7183 14.6969 18.7626 14.6307 18.8184 14.5749C18.8743 14.5191 18.9405 14.4748 19.0134 14.4446C19.0864 14.4144 19.1645 14.3989 19.2434 14.3989C19.3224 14.399 19.4005 14.4145 19.4734 14.4447L21.6286 15.3376C21.7572 15.3908 21.8632 15.4869 21.9288 15.6096C21.9944 15.7323 22.0153 15.874 21.9881 16.0104C21.9609 16.1468 21.8871 16.2695 21.7795 16.3577C21.6719 16.4458 21.537 16.4938 21.3979 16.4936Z" fill="#FFAA45"/>
<path d="M12.0003 18.0854C15.3612 18.0854 18.0857 15.3609 18.0857 12.0001C18.0857 8.63928 15.3612 5.91479 12.0003 5.91479C8.63953 5.91479 5.91504 8.63928 5.91504 12.0001C5.91504 15.3609 8.63953 18.0854 12.0003 18.0854Z" fill="#FFAA45"/>
<path d="M11.9989 7.11451C12.9656 7.11275 13.9111 7.39861 14.7149 7.93571C15.5187 8.47282 16.1446 9.23689 16.513 10.1307C16.7602 10.7228 16.8874 11.358 16.8874 11.9996C16.8874 12.6412 16.7602 13.2765 16.513 13.8686C16.2691 14.462 15.9099 15.0012 15.4562 15.4549C15.0025 15.9085 14.4633 16.2677 13.8699 16.5117C13.2783 16.7579 12.6439 16.8847 12.0031 16.8848C11.0363 16.8867 10.0908 16.6009 9.28691 16.0638C8.48305 15.5267 7.85718 14.7625 7.48896 13.8686C6.45852 11.3805 7.64398 8.51867 10.1321 7.48763C10.7236 7.2413 11.3581 7.11449 11.9989 7.11451Z" fill="#FFDA69"/>
</svg>
