<svg width="62" height="63" viewBox="0 0 62 63" fill="none" xmlns="http://www.w3.org/2000/svg">
<g id="rabbit 1" clip-path="url(#clip0_17_801)">
<g id="Group">
<path id="Vector" d="M44.9871 59.6775C55.0588 54.6153 61.986 44.0682 61.986 31.875C61.986 14.7542 48.3307 0.875 31.486 0.875C14.6413 0.875 0.985962 14.7542 0.985962 31.875C0.985962 44.0682 7.91316 54.6153 17.9848 59.6775H44.9871Z" fill="#1DD882"/>
<path id="Vector_2" d="M61.0776 24.3435L44.7439 7.72612L44.4803 7.474L40.022 25.1841L22.799 7.66278L22.5974 7.474L18.9192 41.934L20.3814 43.4202L23.2206 42.5298L36.7848 44.1867L44.9869 59.6758C55.0586 54.6141 61.986 44.0681 61.986 31.875C61.986 29.2772 61.6698 26.7548 61.0776 24.3435Z" fill="#0CAA5F"/>
<g id="Group_2">
<path id="Vector_3" d="M25.3596 17.4674C25.3596 24.7005 23.2038 32.8465 20.5444 32.8465C17.8851 32.8465 15.7292 24.7005 15.7292 17.4674C15.7292 10.2342 17.8851 6.65271 20.5444 6.65271C23.2038 6.65271 25.3596 10.2342 25.3596 17.4674Z" fill="#E9EDF5"/>
</g>
<g id="Group_3">
<path id="Vector_4" d="M23.2196 18.5168C23.1778 22.5154 21.939 27.0055 20.469 26.9896C18.9989 26.9738 17.8542 22.4578 17.896 18.4593C17.9378 14.4608 19.1502 12.4939 20.6203 12.5097C22.0902 12.5257 23.2613 14.5183 23.2196 18.5168Z" fill="#CDD2E1"/>
</g>
<g id="Group_4">
<path id="Vector_5" d="M37.6123 17.4674C37.6123 24.7005 39.7682 32.8465 42.4275 32.8465C45.0868 32.8465 47.2427 24.7005 47.2427 17.4674C47.2427 10.2342 45.0868 6.65271 42.4275 6.65271C39.7682 6.65283 37.6123 10.2342 37.6123 17.4674Z" fill="#CDD2E1"/>
</g>
<g id="Group_5">
<path id="Vector_6" d="M39.7524 18.5168C39.7942 22.5154 41.0329 27.0055 42.503 26.9896C43.9731 26.9738 45.1178 22.4578 45.076 18.4593C45.0342 14.4608 43.8218 12.4939 42.3517 12.5097C40.8818 12.5257 39.7107 14.5183 39.7524 18.5168Z" fill="#AFB4C8"/>
</g>
<path id="Vector_7" d="M22.9434 57.0073C22.9434 52.2121 26.7681 48.3247 31.4859 48.3247C36.2038 48.3247 40.0284 52.2121 40.0284 57.0073V61.6403C41.7549 61.1293 43.419 60.4693 45.0041 59.6714L42.2159 40.7576H20.756L17.9678 59.6714C19.5529 60.4693 21.217 61.1293 22.9434 61.6403V57.0073Z" fill="#E9EDF5"/>
<path id="Vector_8" d="M31.4859 48.3247C36.2038 48.3247 40.0284 52.2121 40.0284 57.0073V61.6403C41.7549 61.1293 43.4189 60.4693 45.0041 59.6714L42.2158 40.7576H31.4843V48.3248C31.4848 48.3248 31.4853 48.3247 31.4859 48.3247Z" fill="#CDD2E1"/>
<g id="Group_6">
<path id="Vector_9" d="M46.443 35.6502C46.443 43.042 39.7465 45.7625 31.486 45.7625C23.2255 45.7625 16.5289 43.042 16.5289 35.6502C16.5289 28.2584 23.2255 19.7383 31.486 19.7383C39.7465 19.7383 46.443 28.2586 46.443 35.6502Z" fill="white"/>
</g>
<g id="Group_7">
<path id="Vector_10" d="M31.4859 19.7383C31.4853 19.7383 31.4848 19.7383 31.4843 19.7383V45.7625H31.4859C39.7464 45.7625 46.443 43.0419 46.443 35.6502C46.443 28.2586 39.7464 19.7383 31.4859 19.7383Z" fill="#E9EDF5"/>
</g>
<g id="Group_8">
<path id="Vector_11" d="M34.0978 36.2413C33.0746 36.2413 29.8974 36.2413 28.8742 36.2413C26.8548 36.2413 25.2178 37.9053 25.2178 39.9577C25.2178 42.0101 26.8548 43.6741 28.8742 43.6741C29.8974 43.6741 30.8206 43.2485 31.4843 42.5601C32.1479 43.2485 33.0746 43.6741 34.0978 43.6741C36.1172 43.6741 37.7542 42.0101 37.7542 39.9577C37.7542 37.9052 36.1172 36.2413 34.0978 36.2413Z" fill="#E9EDF5"/>
</g>
<g id="Group_9">
<path id="Vector_12" d="M34.0978 36.2413C33.5859 36.2413 32.535 36.2413 31.4843 36.2413V42.5602C31.4837 42.5609 31.4849 42.5596 31.4843 42.5602C32.1479 43.2487 33.0746 43.6741 34.0978 43.6741C36.1172 43.6741 37.7542 42.0102 37.7542 39.9577C37.7542 37.9052 36.1172 36.2413 34.0978 36.2413Z" fill="#CDD2E1"/>
</g>
<g id="Group_10">
<path id="Vector_13" d="M34.6288 37.1042C34.6288 38.5274 33.2217 39.6812 31.4859 39.6812C29.7502 39.6812 28.3431 38.5274 28.3431 37.1042C28.3431 35.681 29.7502 35.566 31.4859 35.566C33.2217 35.566 34.6288 35.681 34.6288 37.1042Z" fill="#414952"/>
</g>
<g id="Group_11">
<path id="Vector_14" d="M31.4859 35.566C31.4853 35.566 31.4848 35.566 31.4843 35.566V39.6811H31.4859C33.2217 39.6811 34.6287 38.5273 34.6287 37.1041C34.6287 35.6808 33.2217 35.566 31.4859 35.566Z" fill="#23272B"/>
</g>
<g id="Group_12">
<g id="Group_13">
<path id="Vector_15" d="M24.6138 32.2818C24.7945 31.1421 24.0319 30.0692 22.9105 29.8856C21.7891 29.702 20.7336 30.4771 20.5529 31.6169C20.3723 32.7567 21.1349 33.8295 22.2563 34.0131C23.3777 34.1967 24.4332 33.4216 24.6138 32.2818Z" fill="#555A66"/>
</g>
<g id="Group_14">
<path id="Vector_16" d="M42.3853 32.286C42.566 31.1462 41.8034 30.0734 40.682 29.8898C39.5606 29.7062 38.5051 30.4813 38.3244 31.6211C38.1438 32.7608 38.9064 33.8337 40.0278 34.0173C41.1492 34.2009 42.2047 33.4258 42.3853 32.286Z" fill="#333940"/>
</g>
</g>
<g id="Group_15">
<path id="Vector_17" d="M31.486 48.2036C26.7681 48.2036 22.9435 52.091 22.9435 56.8862V61.6426C25.6541 62.4448 28.5206 62.875 31.486 62.875C34.4514 62.875 37.3179 62.4448 40.0285 61.6426V56.8862C40.0285 52.091 36.2038 48.2036 31.486 48.2036Z" fill="white"/>
</g>
<g id="Group_16">
<path id="Vector_18" d="M31.4859 48.2036C31.4853 48.2036 31.4848 48.2036 31.4843 48.2036V62.875H31.4859C34.4513 62.875 37.3179 62.4448 40.0284 61.6426V56.8862C40.0284 52.091 36.2038 48.2036 31.4859 48.2036Z" fill="#E9EDF5"/>
</g>
</g>
</g>
<defs>
<clipPath id="clip0_17_801">
<rect width="61" height="62" fill="white" transform="translate(0.985962 0.875)"/>
</clipPath>
</defs>
</svg>
