<svg width="63" height="62" viewBox="0 0 63 62" fill="none" xmlns="http://www.w3.org/2000/svg">
<g id="graduation-cap 1" clip-path="url(#clip0_17_1051)">
<g id="Group">
<path id="Vector" d="M61.1541 30.334C61.1541 46.7192 47.8713 60.002 31.4861 60.002C15.1009 60.002 1.81812 46.7192 1.81812 30.334C1.81812 13.9488 15.1009 0.666016 31.4861 0.666016C47.8713 0.666016 61.1541 13.9488 61.1541 30.334Z" fill="#65BEFC"/>
<path id="Vector_2" d="M54.7964 32.4984C54.7964 45.8741 43.9533 56.7172 30.5776 56.7172C17.202 56.7172 6.35889 45.8741 6.35889 32.4984C6.35889 19.1228 17.202 8.27966 30.5776 8.27966C43.9533 8.27966 54.7964 19.1228 54.7964 32.4984Z" fill="#93D0FD"/>
<path id="Vector_3" d="M50.1396 20.4015V38.7795C50.1396 39.2538 49.8627 39.6845 49.4311 39.8814L31.9884 47.835C31.6693 47.9806 31.3028 47.9806 30.9836 47.835L16.8231 41.378V19.1906H48.9287C49.5975 19.1906 50.1396 19.7327 50.1396 20.4015Z" fill="#0055CA"/>
<path id="Vector_4" d="M17.0371 19.1906V41.4756L13.5409 39.8812C13.1093 39.6845 12.8324 39.2537 12.8324 38.7794V20.4015C12.8324 19.7328 13.3745 19.1906 14.0433 19.1906H17.0371Z" fill="#00429C"/>
<path id="Vector_5" d="M61.6787 18.1306L32.5219 26.8045C31.846 27.0056 31.1262 27.0056 30.4502 26.8045L2.72278 18.5558C2.49149 18.4871 2.49149 18.1595 2.72278 18.0907L34.9604 8.50021C35.4901 8.34254 36.0544 8.34254 36.5842 8.50021L61.6787 15.9656C62.7551 16.2859 62.7551 17.8104 61.6787 18.1306Z" fill="#0077F0"/>
<path id="Vector_6" d="M48.0154 42.1617C48.017 42.6633 47.6117 43.0712 47.11 43.0727H47.1071C46.6068 43.0727 46.2006 42.668 46.199 42.1673L46.1456 25.2511C46.141 23.7924 45.2066 22.5067 43.8207 22.0519L31.2029 17.911C30.7262 17.7545 30.4667 17.2414 30.6232 16.7648C30.7796 16.2881 31.2928 16.0286 31.7693 16.1851L44.3871 20.3261C46.5182 21.0254 47.9547 23.0024 47.9619 25.2453L48.0154 42.1617Z" fill="#FFAA00"/>
<path id="Vector_7" d="M34.7014 17.0182C34.7014 18.077 33.2619 18.9351 31.486 18.9351C29.7102 18.9351 28.2706 18.077 28.2706 17.0182C28.2706 15.9595 29.7102 15.1013 31.486 15.1013C33.2619 15.1013 34.7014 15.9595 34.7014 17.0182Z" fill="#0055CA"/>
<path id="Vector_8" d="M1.29339 15.9655L30.4502 7.2916C31.1262 7.09046 31.8459 7.09046 32.5219 7.2916L36.6637 8.52373L2.83249 18.5883L1.29339 18.1305C0.216983 17.8103 0.216983 16.2858 1.29339 15.9655Z" fill="#0066ED"/>
<path id="Vector_9" d="M46.3098 52.6152H43.8982C43.5639 52.6152 43.2927 52.3441 43.2927 52.0098V41.1719C43.2927 39.0652 45.0005 37.3574 47.1072 37.3574C47.5286 37.3574 47.934 37.4258 48.313 37.552C46.7973 38.0566 45.7043 39.4866 45.7043 41.1719V52.0098C45.7043 52.3441 45.9753 52.6152 46.3098 52.6152Z" fill="#FFAA00"/>
<path id="Vector_10" d="M50.3161 52.6152H46.1304C45.796 52.6152 45.5249 52.3441 45.5249 52.0098V41.1719C45.5249 39.4536 46.6611 38.0007 48.2232 37.5234C49.7853 38.0007 50.9216 39.4536 50.9216 41.1719V52.0098C50.9216 52.3441 50.6506 52.6152 50.3161 52.6152Z" fill="#FFB509"/>
<path id="Vector_11" d="M48.7419 36.6238C48.7419 37.5267 48.0101 38.2585 47.1072 38.2585C46.2043 38.2585 45.4724 37.5267 45.4724 36.6238C45.4724 35.7209 46.2043 34.989 47.1072 34.989C48.0101 34.989 48.7419 35.7209 48.7419 36.6238Z" fill="#FF9500"/>
<path id="Vector_12" d="M12.3009 37.6697C10.3072 37.6671 8.36607 36.6427 7.27816 34.8019C6.19013 32.9612 6.22852 30.7667 7.18758 29.0189C7.29342 28.8256 12.5213 37.67 12.3009 37.6697Z" fill="#FFAA00"/>
<path id="Vector_13" d="M12.8315 37.3561C12.7256 37.5493 12.5212 37.6701 12.3008 37.6698C10.3071 37.6672 6.2284 30.7668 7.18734 29.019C7.2933 28.8258 7.49771 28.705 7.7181 28.7053C9.71179 28.7079 11.6528 29.7323 12.7408 31.5731C13.8289 33.4138 13.7906 35.6083 12.8315 37.3561Z" fill="#FFB509"/>
<path id="Vector_14" d="M38.3202 60.8228C38.1629 61.1459 37.8395 61.334 37.5028 61.334C37.3695 61.334 37.2341 61.3044 37.1063 61.2422C32.0006 58.7576 26.25 54.4505 20.9136 49.1143C15.5774 43.778 11.2702 38.0273 8.7857 32.9216C8.56628 32.4707 8.75398 31.9271 9.20493 31.7076C9.656 31.4883 10.1995 31.6759 10.4189 32.127C15.3793 42.3203 27.7077 54.6486 37.9009 59.6089C38.3518 59.8283 38.5396 60.3719 38.3202 60.8228Z" fill="#FF9500"/>
<path id="Vector_15" d="M17.4405 42.1604C15.6941 41.1989 14.4854 39.3667 14.4173 37.2296C14.3493 35.0924 15.4389 33.1871 17.1205 32.1164C17.3065 31.9981 17.6337 42.2667 17.4405 42.1604ZM15.2895 44.0636C13.7319 45.308 11.5764 45.722 9.57646 44.9655C7.57648 44.209 6.23452 42.4723 5.89025 40.5085C5.85223 40.2914 15.4617 43.926 15.2895 44.0636Z" fill="#FFAA00"/>
<path id="Vector_16" d="M20.76 37.0275C20.828 39.1647 19.7384 41.07 18.0568 42.1407C17.8709 42.259 17.6337 42.2666 17.4407 42.1603C15.6942 41.1988 15.439 33.187 17.1206 32.1163C17.3065 31.998 17.5437 31.9904 17.7367 32.0967C19.4831 33.0582 20.6919 34.8903 20.76 37.0275ZM11.8215 39.0299C13.8215 39.7864 15.1635 41.5231 15.5078 43.4869C15.5458 43.704 15.4619 43.926 15.2897 44.0636C13.732 45.3079 6.23464 42.4723 5.89037 40.5085C5.85235 40.2914 5.93627 40.0694 6.10846 39.9318C7.66609 38.6875 9.82156 38.2736 11.8215 39.0299Z" fill="#FFB509"/>
<path id="Vector_17" d="M23.8938 49.0496C22.0422 48.3106 20.6169 46.6415 20.2858 44.529C19.9547 42.4165 20.8012 40.3915 22.3381 39.1216C22.508 38.9812 24.0984 49.1313 23.8938 49.0496ZM19.6937 50.0495C18.5647 51.6928 16.6224 52.7149 14.4889 52.572C12.3555 52.4292 10.5668 51.1571 9.66698 49.3781C9.56756 49.1814 19.8185 49.8679 19.6937 50.0495ZM30.6456 54.2912C28.794 53.5523 27.3687 51.8831 27.0376 49.7707C26.7066 47.6582 27.553 45.6331 29.0899 44.3632C29.2598 44.2229 30.8503 54.3728 30.6456 54.2912ZM26.2543 55.7144C25.1253 57.3577 23.183 58.3798 21.0495 58.2369C18.9161 58.094 17.1274 56.822 16.2276 55.043C16.1282 54.8463 26.3791 55.5328 26.2543 55.7144Z" fill="#FFAA00"/>
<path id="Vector_18" d="M26.5552 43.5466C26.8863 45.6591 26.0398 47.6841 24.5029 48.9541C24.333 49.0944 24.0986 49.1312 23.8938 49.0495C22.0422 48.3106 20.8012 40.3914 22.3381 39.1215C22.508 38.9811 22.7425 38.9443 22.9472 39.0261C24.7989 39.765 26.2241 41.4341 26.5552 43.5466ZM14.913 46.2403C17.0465 46.3832 18.8351 47.6553 19.735 49.4343C19.8344 49.631 19.8185 49.8678 19.6938 50.0495C18.5648 51.6927 10.567 51.1571 9.66712 49.378C9.5677 49.1813 9.58357 48.9445 9.70829 48.7628C10.8373 47.1197 12.7796 46.0976 14.913 46.2403ZM33.307 48.7883C33.6381 50.9008 32.7917 52.9258 31.2547 54.1957C31.0849 54.3361 30.8504 54.3729 30.6456 54.2911C28.794 53.5522 27.553 45.6331 29.09 44.3631C29.2598 44.2228 29.4943 44.186 29.6991 44.2677C31.5507 45.0066 32.976 46.6758 33.307 48.7883ZM21.4736 51.9052C23.6071 52.0481 25.3957 53.3202 26.2956 55.0992C26.395 55.2959 26.3791 55.5327 26.2544 55.7144C25.1255 57.3576 17.1276 56.822 16.2277 55.0429C16.1283 54.8462 16.1442 54.6094 16.2689 54.4277C17.3979 52.7846 19.3402 51.7623 21.4736 51.9052Z" fill="#FFB509"/>
<path id="Vector_19" d="M31.6184 57.3749C31.5442 57.3934 31.4697 57.4025 31.3966 57.4025C30.99 57.4025 30.6199 57.1275 30.5163 56.7153C29.7836 53.7982 29.3182 51.0613 29.1332 48.5803C29.0958 48.0802 29.4712 47.6444 29.9713 47.6071C30.4726 47.5706 30.9072 47.945 30.9445 48.4453C31.1219 50.8227 31.5706 53.4563 32.278 56.2728C32.4002 56.7592 32.1048 57.2525 31.6184 57.3749ZM17.5304 45.4096C17.6456 45.4096 17.7581 45.3873 17.8625 45.3459C17.8795 45.3469 17.8965 45.3475 17.9137 45.3475C17.9508 45.3475 17.9882 45.3452 18.0259 45.3404C18.5237 45.2792 18.8776 44.8259 18.8162 44.3281C18.4613 41.4458 18.3407 38.777 18.4578 36.3958C18.4824 35.8949 18.0962 35.4688 17.5953 35.4442C17.0951 35.4218 16.6682 35.8058 16.6436 36.3067C16.5375 38.4639 16.6174 40.8388 16.8808 43.3809C14.4535 42.6656 12.2596 41.8463 10.3484 40.9405C9.89769 40.7268 9.35894 40.9189 9.14534 41.3699C8.93173 41.8207 9.1239 42.3593 9.57473 42.5731C11.8102 43.6325 14.4054 44.5757 17.2882 45.3765C17.3689 45.3989 17.4503 45.4096 17.5304 45.4096ZM22.671 50.6835C23.0158 50.6752 23.3108 50.4749 23.4561 50.1873C23.5529 50.612 23.6558 51.0408 23.7645 51.4736C23.868 51.8858 24.2381 52.1608 24.6447 52.1608C24.7179 52.1608 24.7923 52.1518 24.8667 52.1332C25.3531 52.0109 25.6485 51.5175 25.5263 51.031C24.8189 48.2142 24.3702 45.5807 24.1928 43.2035C24.1554 42.7031 23.7204 42.3282 23.2196 42.3653C22.7195 42.4027 22.3442 42.8384 22.3815 43.3385C22.5149 45.1274 22.7942 47.0498 23.2144 49.0769C23.0538 48.9481 22.8489 48.8727 22.6282 48.8772C19.5657 48.9499 16.2716 48.7881 14.0305 48.4544C13.5369 48.3812 13.0775 48.7212 13.0041 49.2147C12.9306 49.708 13.271 50.1677 13.7645 50.2411C15.7338 50.5343 18.4681 50.7008 21.1702 50.7008C21.6731 50.701 22.1755 50.6953 22.671 50.6835ZM29.2625 54.5591C26.1832 54.6324 22.8709 54.4696 20.6181 54.134C20.122 54.0602 19.6599 54.4024 19.5862 54.8985C19.5123 55.3946 19.8545 55.8567 20.3506 55.9304C22.3301 56.2253 25.0791 56.3924 27.7961 56.3924C28.302 56.3924 28.8072 56.3866 29.3057 56.3747C29.8072 56.3627 30.204 55.9467 30.1922 55.4451C30.18 54.9439 29.759 54.5493 29.2625 54.5591Z" fill="#FF9500"/>
</g>
</g>
<defs>
<clipPath id="clip0_17_1051">
<rect width="62" height="62" fill="white" transform="translate(0.486084)"/>
</clipPath>
</defs>
</svg>
