<svg width="73" height="75" viewBox="0 0 73 75" fill="none" xmlns="http://www.w3.org/2000/svg">
<g id="fire 1" clip-path="url(#clip0_17_672)">
<g id="XMLID_47_">
<path id="XMLID_1592_" d="M40.3585 17.8519L36.9706 4.41614C32.3625 7.77721 30.07 13.0916 29.1308 18.8744C25.5869 17.417 22.4811 16.7176 18.6986 16.6903C17.9528 16.6849 17.3121 16.6803 16.5663 16.6749V18.8665C16.5663 27.4078 11.3209 29.1924 8.72061 36.6295C7.75123 39.4023 7.35215 42.1695 7.43572 45.0805C7.86868 60.6364 19.6594 73.5328 34.6896 74.7327L36.9706 31.056L40.3585 17.8519Z" fill="#EC3D93"/>
<path id="XMLID_1591_" d="M39.2882 74.7311C54.4148 73.5218 66.519 60.4324 66.519 44.1748C66.519 36.7908 63.9564 29.4421 58.913 23.648C54.1511 18.1746 51.2796 10.9192 51.2796 3.04873C51.2796 2.28921 51.2796 1.63646 51.2796 0.876645H49.9883C49.5117 0.904067 46.23 0.687163 42.5638 1.72874C40.4821 2.32026 38.6142 3.21732 36.9706 4.41588V31.0558L39.2882 74.7311Z" fill="#D000B1"/>
<path id="XMLID_1590_" d="M31.6083 39.5253C29.6632 38.8322 27.9308 38.5381 25.9527 38.524C25.2071 38.5188 24.5663 38.5143 23.8205 38.5088V40.7003C23.8205 42.9029 22.9462 44.9379 21.5773 46.6213C19.4583 49.2259 18.204 52.588 18.3123 56.3232C18.6028 66.6151 26.8945 74.8751 36.9706 74.8751L38.6176 52.431L36.9706 31.0562C34.0081 32.9595 32.3677 36.0048 31.6083 39.5253Z" fill="#FFEC29"/>
<path id="XMLID_1589_" d="M50.1506 69.2958C57.34 61.9548 57.3666 50.3578 50.825 42.9466C47.9984 39.7423 46.4433 35.6018 46.4433 31.2891C46.4433 30.528 46.4433 29.8739 46.4433 29.1128C45.7028 29.1128 45.0664 29.1128 44.3259 29.1128C41.731 29.1128 39.1705 29.6424 36.9705 31.0561V74.8752C37.2742 74.8446 40.3827 75.011 44.103 73.4367C46.3358 72.4919 48.3869 71.0967 50.1506 69.2958Z" fill="#FFCB00"/>
<path id="XMLID_1588_" d="M30.1547 56.9578L36.4619 58.4742L32.6282 62.4273L35.6276 65.4999L36.9705 64.1152L38.194 57.0978L36.9705 50.3022L30.1547 56.9578Z" fill="#EC3D93"/>
<path id="XMLID_1587_" d="M38.7617 54.557L42.5678 50.8406L39.6507 47.6849L36.9706 50.3022V64.1151L44.8256 56.0151L38.7617 54.557Z" fill="#D000B1"/>
</g>
</g>
<defs>
<clipPath id="clip0_17_672">
<rect width="72" height="74" fill="white" transform="translate(0.971924 0.875)"/>
</clipPath>
</defs>
</svg>
