<svg xmlns="http://www.w3.org/2000/svg" xmlns:xlink="http://www.w3.org/1999/xlink" width="16.945" height="16.945" viewBox="0 0 16.945 16.945">
  <defs>
    <clipPath id="clip-path">
      <path id="artboard_1" d="M0,0H16.945V16.945H0Z" fill="#949494"/>
    </clipPath>
  </defs>
  <g id="subscribe" clip-path="url(#clip-path)">
    <path id="Vector" d="M9.354,4.707a4.592,4.592,0,0,1,1.4-3.37q.117-.117.238-.224A5.35,5.35,0,0,0,9.885,1h0A5.15,5.15,0,0,0,6.315,2.374,5.15,5.15,0,0,0,4.589,5.787L4.14,10.231A1.9,1.9,0,0,0,3,12.12H3a1.872,1.872,0,0,0,2.118,2.118H14.65a1.872,1.872,0,0,0,2.118-2.118h0a1.9,1.9,0,0,0-1.14-1.888l-.1-.958a4.872,4.872,0,0,1-1.411.2,4.592,4.592,0,0,1-3.37-1.4A4.592,4.592,0,0,1,9.354,4.707ZM11.5,2.086a3.571,3.571,0,0,0-1.086,2.621A3.571,3.571,0,0,0,11.5,7.328a3.707,3.707,0,0,0,5.242,0,3.571,3.571,0,0,0,1.086-2.621,3.571,3.571,0,0,0-1.086-2.621,3.707,3.707,0,0,0-5.242,0Zm2.124,2.169-.187-.187a.53.53,0,0,0-.749,0,.53.53,0,0,0,0,.749l.794.794a.53.53,0,0,0,.749,0l1.589-1.589a.53.53,0,0,0,0-.749.53.53,0,0,0-.749,0l-.749.749-.465.465Zm-5.986,11.7a3.292,3.292,0,0,1-.514-.658h5.521a3.292,3.292,0,0,1-.514.658,3.177,3.177,0,0,1-4.493,0Z" transform="translate(-1.411 -0.47)" fill="#949494" fill-rule="evenodd"/>
  </g>
</svg>
