<svg xmlns="http://www.w3.org/2000/svg" width="14.384" height="14.384" viewBox="0 0 14.384 14.384">
  <path id="Path_24367" data-name="Path 24367" d="M9.192,2a7.192,7.192,0,1,0,7.192,7.192A7.194,7.194,0,0,0,9.192,2ZM8.473,14.895a5.745,5.745,0,0,1-5.034-5.7A5.838,5.838,0,0,1,3.589,7.9l3.445,3.445v.719a1.443,1.443,0,0,0,1.438,1.438Zm4.962-1.827a1.427,1.427,0,0,0-1.366-1h-.719V9.911a.721.721,0,0,0-.719-.719H6.315V7.753H7.753a.721.721,0,0,0,.719-.719V5.6H9.911a1.443,1.443,0,0,0,1.438-1.438V3.863a5.741,5.741,0,0,1,2.086,9.205Z" transform="translate(-2 -2)" fill="#949494"/>
</svg>
