<svg width="60" height="58" viewBox="0 0 60 58" fill="none" xmlns="http://www.w3.org/2000/svg">
<g id="abstract-shape 1" clip-path="url(#clip0_17_836)">
<g id="Group">
<path id="Vector" d="M58.2325 30.0996C58.2325 30.5797 58.2197 31.0569 58.1943 31.5308C58.1665 32.0489 57.0442 32.3467 56.9869 32.8568C55.4534 46.5217 44.4227 56.1504 29.8705 56.1504C14.2781 56.1504 3.20442 45.2899 3.20442 30.2261C3.20442 30.1261 1.76825 29.8997 1.76929 29.7999C1.93569 14.8742 14.5113 2.82422 30.0001 2.82422C45.5925 2.82422 58.2325 15.0358 58.2325 30.0996Z" fill="#1F3597"/>
<path id="Vector_2" d="M53.0471 30.0996C53.0471 42.3966 42.7287 52.3652 30.0002 52.3652C17.2718 52.3652 6.95337 42.3966 6.95337 30.0996C6.95337 17.8026 17.2718 7.83398 30.0002 7.83398C42.7287 7.83398 53.0471 17.8026 53.0471 30.0996Z" fill="#2740B1"/>
<path id="Vector_3" d="M6.25842 42.1452C4.57001 31.9768 12.0392 18.8294 15.4807 19.3008C16.0832 19.3833 16.6401 19.5745 17.1602 19.8545C22.4134 22.6824 23.9066 34.5624 30.4612 34.8867C35.3798 35.1301 36.6144 28.5433 43.137 27.0937C47.8207 26.0528 53.6797 28.0055 58.1944 31.5308C57.9624 35.8676 56.6818 39.9367 54.5928 43.5056C54.3619 43.9002 45.4329 39.4005 42.1693 40.3087C38.2065 41.4115 38.0172 46.4743 33.9604 47.1063C28.4488 47.965 26.029 39.0513 19.8882 39.1757C17.3999 39.2262 12.95 43.4516 10.3968 45.9456C9.27053 47.046 6.59422 44.1677 6.25842 42.1452Z" fill="#FF4FB8"/>
<path id="Vector_4" d="M9.69883 41.6022C10.28 42.8737 10.8809 44.0254 11.4727 44.908C9.78134 46.523 8.54084 47.8245 8.45649 47.7284C4.2842 42.9742 1.76782 36.8208 1.76782 30.0996C1.76782 29.9996 1.7684 29.8996 1.76955 29.7999C5.55442 23.3345 11.3546 18.7355 15.4807 19.3007C16.0832 19.3832 16.6401 19.5745 17.1601 19.8545C16.6727 20.0501 16.0965 20.3889 15.4655 20.8275C8.69168 25.5364 6.32822 34.2268 9.69883 41.6022Z" fill="#FF2AAA"/>
<path id="Vector_5" d="M47.7158 34.0132C41.2298 36.2765 32.2473 30.5011 32.2784 23.3926C32.3006 18.3151 36.9208 12.7753 43.2669 12.7766C44.3873 12.7768 45.4492 12.9498 46.4393 13.2639C46.569 13.305 39.4358 19.3319 39.4181 23.3926C39.3971 28.1681 47.7888 33.9877 47.7158 34.0132Z" fill="#00AAF2"/>
<path id="Vector_6" d="M47.9339 33.9337C47.8615 33.9611 47.7888 33.9876 47.7156 34.0131C42.9179 32.5934 38.6221 28.3123 38.6436 23.3927C38.662 19.2143 41.794 14.7229 46.4391 13.2639C50.9631 14.6989 53.9881 19.0801 54.2551 23.3927C54.5235 27.7266 52.0303 32.3755 47.9339 33.9337Z" fill="#00C1FB"/>
<path id="Vector_7" d="M26.6811 9.893C26.1943 10.0441 25.6753 10.1257 25.1365 10.1257C22.3494 10.1257 20.0901 7.94297 20.0901 5.25028C20.0901 2.55781 22.3494 0.375 25.1364 0.375C25.6752 0.375 26.1943 0.456604 26.681 0.607676C26.7552 0.630721 23.6197 3.15753 23.6197 5.25028C23.6198 7.34314 26.7554 9.86995 26.6811 9.893Z" fill="#FF2AAA"/>
<path id="Vector_8" d="M30.1829 5.25027C30.1829 7.42228 28.7127 9.26265 26.6812 9.89288C24.6497 9.26254 23.1794 7.42228 23.1794 5.25027C23.1794 3.07826 24.6497 1.23801 26.6812 0.607666C28.7127 1.23801 30.1829 3.07826 30.1829 5.25027Z" fill="#FF4FB8"/>
<path id="Vector_9" d="M52.5753 19.3299C52.0885 19.481 51.5694 19.5626 51.0307 19.5626C48.2437 19.5626 45.9844 17.3798 45.9844 14.6872C45.9844 11.9946 48.2437 9.81189 51.0307 9.81189C51.5694 9.81189 52.0886 9.89349 52.5753 10.0446C52.6495 10.0676 49.514 12.5944 49.514 14.6872C49.514 16.78 52.6495 19.3068 52.5753 19.3299Z" fill="#FFEA00"/>
<path id="Vector_10" d="M56.0772 14.6872C56.0772 16.8592 54.6069 18.6995 52.5755 19.3298C50.544 18.6994 49.0737 16.8592 49.0737 14.6872C49.0737 12.5151 50.544 10.6749 52.5755 10.0446C54.6069 10.6749 56.0772 12.5151 56.0772 14.6872Z" fill="#FFF261"/>
<path id="Vector_11" d="M29.7135 57.131C25.103 57.131 21.6539 56.296 18.3847 54.3918C13.0362 51.2767 11.9636 44.1556 16.2907 39.8051C17.4937 38.5956 18.6674 38.0535 20.3675 38.019C22.2594 37.9806 23.5147 37.9096 24.8942 39.0477C27.9142 41.5394 30.2004 45.4854 33.9183 44.9062C37.9047 44.2851 38.0907 39.3102 41.9847 38.2265C45.5214 37.2423 50.7437 39.85 54.5928 43.5056C49.9331 51.4668 41.2513 56.9402 31.2136 57.3502C30.8113 57.3666 30.1199 57.131 29.7135 57.131Z" fill="#00C1FB"/>
<path id="Vector_12" d="M23.5236 55.0162C26.2172 56.2462 29.1685 57.0354 32.2781 57.2874C31.5267 57.3454 30.7671 57.375 30.0002 57.375C21.365 57.375 13.6352 53.6296 8.45654 47.7286C13.2306 40.7607 16.2816 37.1905 20.09 37.1133C21.9819 37.075 23.5144 37.9098 24.8939 39.0478C23.9619 39.1639 23.0726 39.5198 22.1789 40.114C16.5268 43.8714 17.3205 52.1838 23.5236 55.0162Z" fill="#00AAF2"/>
<path id="Vector_13" d="M9.46409 32.9283C10.9793 32.9283 12.2076 34.115 12.2076 35.5788C12.2076 37.0427 10.9793 38.2293 9.46409 38.2293C7.94887 38.2293 6.7207 37.0426 6.7207 35.5788C6.7207 34.1151 7.94899 32.9283 9.46409 32.9283Z" fill="#00C1FB"/>
<path id="Vector_14" d="M26.867 13.6989C28.1465 13.6989 29.1839 14.701 29.1839 15.9372C29.1839 17.1734 28.1465 18.1756 26.867 18.1756C25.5874 18.1756 24.55 17.1734 24.55 15.9372C24.55 14.701 25.5873 13.6989 26.867 13.6989Z" fill="#FFEA00"/>
<path id="Vector_15" d="M44.1079 42.6915C46.0699 42.6915 47.6605 44.2282 47.6605 46.1238C47.6605 48.0194 46.0699 49.556 44.1079 49.556C42.1458 49.556 40.5552 48.0194 40.5552 46.1238C40.5552 44.2282 42.1458 42.6915 44.1079 42.6915Z" fill="#FF2AAA"/>
</g>
</g>
<defs>
<clipPath id="clip0_17_836">
<rect width="59" height="57" fill="white" transform="translate(0.500244 0.375)"/>
</clipPath>
</defs>
</svg>
