<svg width="57" height="57" viewBox="0 0 57 57" fill="none" xmlns="http://www.w3.org/2000/svg">
<g id="briefcase 1" clip-path="url(#clip0_17_853)">
<g id="Group">
<path id="Vector" d="M33.3208 1.29236L22.8268 1.45708C10.4862 4.02225 1.22461 14.7837 1.22461 27.6717C1.22461 42.4712 13.4362 54.4685 28.4999 54.4685C43.5636 54.4685 55.7752 42.4712 55.7752 27.6717C55.7752 14.4886 46.0852 3.52886 33.3208 1.29236Z" fill="#746BF9"/>
<path id="Vector_2" d="M9.47803 42.8208V53.5685C9.47803 55.3871 10.9925 56.8749 12.8435 56.8749H44.1563C46.0073 56.8749 47.5217 55.387 47.5217 53.5685V42.8208H9.47803Z" fill="#5F5F9B"/>
<path id="Vector_3" d="M18.4606 53.8084L18.0569 42.8208H9.47803V53.5685C9.47803 55.3871 10.9924 56.8749 12.8435 56.8749H18.4606C16.8286 55.2716 18.4606 53.8084 18.4606 53.8084Z" fill="#47477F"/>
<path id="Vector_4" d="M44.4005 42.8208H12.5994V52.8577C12.5994 53.3828 13.0325 53.8084 13.567 53.8084H43.4327C43.9672 53.8084 44.4005 53.3827 44.4005 52.8577V42.8208Z" fill="#3B3868"/>
<g id="Group_2">
<path id="Vector_5" d="M17.0605 52.4329V46.6619C17.0605 46.2037 17.2926 45.7968 17.6461 45.5465V42.8208H12.5994V52.8577C12.5994 53.3828 13.0325 53.8084 13.567 53.8084H18.4606C17.6905 53.8083 17.0605 53.1893 17.0605 52.4329Z" fill="#2D2D59"/>
</g>
<path id="Vector_6" d="M30.3039 23.6619C29.531 23.6619 28.8986 23.0407 28.8986 22.2813C28.8986 23.0407 28.2663 23.6619 27.4933 23.6619C26.7468 23.6619 26.1315 23.0822 26.0904 22.3583V22.2495C26.0904 22.9653 25.5485 23.5862 24.8234 23.6554C23.9891 23.7349 23.2798 23.0855 23.2798 22.2813C23.2798 21.9249 23.2798 12.3939 23.2798 12.1216V8.69702H32.8342V9.73838C32.8342 10.2226 33.0159 10.6873 33.3357 11.0556C34.081 11.9136 34.5174 13.0212 34.5174 14.2038V22.2812C34.5174 23.0853 33.8082 23.7347 32.9738 23.6553C32.2486 23.5861 31.7068 22.9652 31.7068 22.2494V22.3582C31.6658 23.0822 31.0505 23.6619 30.3039 23.6619Z" fill="#FCAD6D"/>
<g id="Group_3">
<path id="Vector_7" d="M39.5246 27.3359C39.1138 27.3359 38.7539 27.0406 38.6915 26.6294C38.3691 24.5045 37.2479 22.5866 35.5347 21.229C35.3246 21.0626 35.0922 20.916 34.8439 20.7933C34.4279 20.5877 34.2602 20.0896 34.4695 19.6807C34.6789 19.272 35.1858 19.1073 35.6019 19.3129C35.9569 19.4883 36.2905 19.699 36.5935 19.9392C38.6373 21.5585 39.9748 23.8477 40.3599 26.385C40.4286 26.8376 40.1107 27.2591 39.6502 27.3266C39.6079 27.3329 39.5659 27.3359 39.5246 27.3359Z" fill="#E9EFFF"/>
</g>
<g id="Group_4">
<path id="Vector_8" d="M38.4567 21.8554C37.9271 21.148 37.3041 20.5024 36.5933 19.9392C36.2903 19.6991 35.9566 19.4883 35.6017 19.3129C35.1856 19.1073 34.6787 19.272 34.4693 19.6807C34.26 20.0896 34.4276 20.5876 34.8437 20.7933C35.0919 20.916 35.3244 21.0626 35.5345 21.229C36.1624 21.7266 36.7098 22.2999 37.1684 22.9305C37.0682 22.2089 37.7636 21.6454 38.4567 21.8554Z" fill="#BEC9F7"/>
</g>
<g id="Group_5">
<path id="Vector_9" d="M17.4753 27.3359C17.434 27.3359 17.392 27.3329 17.3499 27.3267C16.8892 27.2592 16.5715 26.8377 16.6402 26.3851C17.0252 23.8477 18.3627 21.5586 20.4064 19.9393C20.7095 19.6991 21.0431 19.4885 21.398 19.3131C21.8141 19.1073 22.321 19.2722 22.5303 19.6811C22.7396 20.0899 22.572 20.5879 22.1558 20.7935C21.9077 20.9161 21.6752 21.0628 21.4652 21.2292C19.7518 22.5867 18.6307 24.5046 18.3083 26.6295C18.246 27.0406 17.8861 27.3359 17.4753 27.3359Z" fill="#BEC9F7"/>
</g>
<path id="Vector_10" d="M34.5711 20.3867H22.4285C21.7014 20.3867 21.1059 19.8368 21.047 19.1373H21.0413V21.1742C21.0413 21.9269 21.6624 22.5371 22.4285 22.5371H34.5711C35.3372 22.5371 35.9583 21.9269 35.9583 21.1742V19.1373H35.9525C35.8935 19.8368 35.2982 20.3867 34.5711 20.3867Z" fill="#47477F"/>
<path id="Vector_11" d="M34.5711 20.5003H22.4285C21.6624 20.5003 21.0413 19.8901 21.0413 19.1373C21.0413 18.3846 21.6624 17.7744 22.4285 17.7744H34.5711C35.3372 17.7744 35.9583 18.3846 35.9583 19.1373C35.9583 19.8901 35.3372 20.5003 34.5711 20.5003Z" fill="#5F5F9B"/>
<path id="Vector_12" d="M27.4932 23.7821C28.266 23.7821 28.8985 23.1608 28.8985 22.4014V18.5147C28.8985 17.7553 28.2661 17.134 27.4932 17.134C26.7202 17.134 26.0879 17.7553 26.0879 18.5147V22.4014C26.0879 23.1607 26.7202 23.7821 27.4932 23.7821Z" fill="#FCAD6D"/>
<path id="Vector_13" d="M30.3037 23.7821C31.0767 23.7821 31.709 23.1608 31.709 22.4014V18.5147C31.709 17.7553 31.0767 17.134 30.3037 17.134C29.5309 17.134 28.8984 17.7553 28.8984 18.5147V22.4014C28.8984 23.1607 29.5308 23.7821 30.3037 23.7821Z" fill="#FCAD6D"/>
<path id="Vector_14" d="M24.6851 23.7821C25.458 23.7821 26.0904 23.1608 26.0904 22.4014V18.5147C26.0904 17.7553 25.458 17.134 24.6851 17.134C23.9121 17.134 23.2798 17.7553 23.2798 18.5147V22.4014C23.2798 23.1607 23.9121 23.7821 24.6851 23.7821Z" fill="#FCAD6D"/>
<path id="Vector_15" d="M23.2798 18.5147V20.7588C23.5017 20.209 24.049 19.8174 24.6851 19.8174C25.3212 19.8174 25.8685 20.2091 26.0904 20.7588V18.5147C26.0904 17.7553 25.458 17.134 24.6851 17.134C23.9121 17.134 23.2798 17.7554 23.2798 18.5147Z" fill="#FD995B"/>
<path id="Vector_16" d="M33.1121 23.7821C33.885 23.7821 34.5174 23.1608 34.5174 22.4014V18.5147C34.5174 17.7553 33.885 17.134 33.1121 17.134C32.3391 17.134 31.7068 17.7553 31.7068 18.5147V22.4014C31.7068 23.1607 32.3391 23.7821 33.1121 23.7821Z" fill="#FCAD6D"/>
<path id="Vector_17" d="M26.0879 18.5147V20.7588C26.3098 20.209 26.8571 19.8174 27.4932 19.8174C28.1293 19.8174 28.6766 20.2091 28.8985 20.7588V18.5147C28.8985 17.7553 28.2661 17.134 27.4932 17.134C26.7202 17.134 26.0879 17.7554 26.0879 18.5147Z" fill="#FD995B"/>
<path id="Vector_18" d="M28.8984 18.5147V20.7588C29.1203 20.209 29.6676 19.8174 30.3037 19.8174C30.9399 19.8174 31.4872 20.2091 31.709 20.7588V18.5147C31.709 17.7553 31.0767 17.134 30.3037 17.134C29.5308 17.134 28.8984 17.7554 28.8984 18.5147Z" fill="#FD995B"/>
<path id="Vector_19" d="M31.7068 18.5147V20.7588C31.9287 20.209 32.476 19.8174 33.1121 19.8174C33.7482 19.8174 34.2955 20.209 34.5174 20.7588V18.5147C34.5174 17.7553 33.885 17.134 33.1121 17.134C32.3391 17.134 31.7068 17.7554 31.7068 18.5147Z" fill="#FD995B"/>
<path id="Vector_20" d="M26.105 19.9985L22.092 18.7747C21.6471 18.639 21.2909 18.3096 21.1267 17.8813C20.6862 16.7323 20.2633 14.2399 22.6534 10.8057C23.0213 10.277 23.2213 9.65253 23.2213 9.01203V8.69714H27.3329V11.4013C27.3329 15.2832 24.1581 16.3636 24.1581 16.3636C27.4762 16.9787 27.4535 18.6336 27.2651 19.3669C27.1407 19.8519 26.6116 20.1531 26.105 19.9985Z" fill="#FCAD6D"/>
<path id="Vector_21" d="M22.7488 18.9741L24.3544 19.4637C25.2605 17.9273 26.5904 18.6458 27.3042 19.2131C27.4475 18.4231 27.2655 16.9394 24.1633 16.3643L23.7304 16.5116C24.7986 18.3758 22.7488 18.9741 22.7488 18.9741Z" fill="#FD995B"/>
<path id="Vector_22" d="M27.2706 19.3676C27.2844 19.314 27.2972 19.2554 27.3079 19.1927C26.6048 18.6168 25.243 17.839 24.3325 19.457L26.1103 19.9992C26.6171 20.1538 27.1461 19.8526 27.2706 19.3676Z" fill="#FCD7C3"/>
<path id="Vector_23" d="M27.1508 12.8719C26.9201 12.8161 26.6829 12.9431 26.6088 13.1649C25.913 15.2485 24.1099 15.9051 24.0119 15.9393C23.7736 16.0211 23.6476 16.2771 23.7302 16.5116C23.813 16.7466 24.0741 16.8711 24.3132 16.7897C24.3495 16.7773 25.2126 16.4775 26.0694 15.6621C26.5707 15.1851 27.1328 14.4656 27.4756 13.4484C27.5594 13.2002 27.4092 12.9343 27.1508 12.8719Z" fill="#FD995B"/>
<g id="Group_6">
<path id="Vector_24" d="M30.7898 10.4463C29.5659 10.4525 28.8619 10.8139 28.4711 11.151C28.166 11.4139 27.724 11.4531 27.38 11.2415C26.3956 10.636 24.394 9.90233 22.1435 11.8912C22.0485 11.9751 21.9294 12.0673 21.8354 12.1403C22.0621 11.7129 22.3314 11.2681 22.6534 10.8056C23.0213 10.2768 23.2213 9.65241 23.2213 9.01191V8.69702H32.8342V9.73838C32.8342 10.2226 33.0159 10.6873 33.3358 11.0556C33.6259 11.3896 33.8685 11.7619 34.0575 12.1614C33.6278 11.5973 32.5324 10.4374 30.7898 10.4463Z" fill="#FD995B"/>
</g>
<path id="Vector_25" d="M33.3209 1.29237C31.7561 1.01817 30.1451 0.875 28.5 0.875C26.5545 0.875 24.6571 1.07669 22.8269 1.45709V4.78056H33.3209V1.29237Z" fill="#47477F"/>
<path id="Vector_26" d="M33.3007 4.27466H22.8472C22.5639 4.27466 22.3323 4.50227 22.3323 4.78052V8.33028C22.3323 8.60853 22.5639 8.83614 22.8472 8.83614H33.3007C33.5839 8.83614 33.8156 8.60853 33.8156 8.33028V4.78063C33.8157 4.50238 33.5839 4.27466 33.3007 4.27466Z" fill="#E9EFFF"/>
<path id="Vector_27" d="M28.0739 8.33028V4.78052C28.0739 4.50227 28.3056 4.27466 28.5888 4.27466H22.8472C22.5639 4.27466 22.3323 4.50227 22.3323 4.78052V8.33028C22.3323 8.60853 22.5639 8.83614 22.8472 8.83614H28.5888C28.3057 8.83614 28.0739 8.60853 28.0739 8.33028Z" fill="#BEC8F7"/>
<path id="Vector_28" d="M47.5389 42.9343H9.46059C8.90829 42.9343 8.4563 42.4904 8.4563 41.9477V28.9131C8.4563 27.5898 9.55834 26.5071 10.9053 26.5071H46.0942C47.4412 26.5071 48.5432 27.5898 48.5432 28.9131V41.9477C48.5432 42.4904 48.0913 42.9343 47.5389 42.9343Z" fill="#47477F"/>
<g id="Group_7">
<path id="Vector_29" d="M17.6461 33.581C17.0622 33.4177 16.6308 32.8888 16.6308 32.2646V27.8767C16.6308 27.1235 17.258 26.5072 18.0247 26.5072H10.9053C9.55834 26.5072 8.4563 27.5899 8.4563 28.9132V41.9478C8.4563 42.4904 8.90818 42.9345 9.46059 42.9345H17.646V33.581H17.6461Z" fill="#3B3868"/>
</g>
<path id="Vector_30" d="M15.8218 40.0735V44.2759C15.8218 45.0495 16.4601 45.6767 17.2476 45.6767C18.035 45.6767 18.6733 45.0495 18.6733 44.2759V40.0735H15.8218Z" fill="#7272AF"/>
<path id="Vector_31" d="M18.6733 37.3098H15.8218V33.6574C15.8218 33.4808 15.9674 33.3376 16.1472 33.3376H18.348C18.5277 33.3376 18.6734 33.4808 18.6734 33.6574V37.3098H18.6733Z" fill="#5F5F9B"/>
<path id="Vector_32" d="M38.3264 40.0735V44.2759C38.3264 45.0495 38.9648 45.6767 39.7522 45.6767C40.5396 45.6767 41.178 45.0495 41.178 44.2759V40.0735H38.3264Z" fill="#7272AF"/>
<g id="Group_8">
<path id="Vector_33" d="M15.8218 40.0735V43.8076C15.8218 43.0339 16.4601 42.4068 17.2476 42.4068C18.035 42.4068 18.6733 43.0339 18.6733 43.8076V40.0735H15.8218Z" fill="#5F5F9B"/>
<path id="Vector_34" d="M38.3264 40.0735V43.8076C38.3264 43.0339 38.9648 42.4068 39.7522 42.4068C40.5396 42.4068 41.178 43.0339 41.178 43.8076V40.0735H38.3264Z" fill="#5F5F9B"/>
<path id="Vector_35" d="M41.178 37.3098H38.3264V33.6574C38.3264 33.4808 38.4721 33.3376 38.6518 33.3376H40.8527C41.0324 33.3376 41.1781 33.4808 41.1781 33.6574V37.3098H41.178Z" fill="#5F5F9B"/>
</g>
<path id="Vector_36" d="M21.3463 29.8136H35.6533C36.2009 29.8136 36.649 29.3734 36.649 28.8353V26.5071H20.3506V28.8353C20.3506 29.3734 20.7987 29.8136 21.3463 29.8136Z" fill="#3B3868"/>
<path id="Vector_37" d="M31.8541 26.5071V28.8353C31.8541 29.3734 31.4061 29.8136 30.8584 29.8136H35.6532C36.2008 29.8136 36.6489 29.3734 36.6489 28.8353V26.5071H31.8541Z" fill="#2D2D59"/>
<g id="Group_9">
<path id="Vector_38" d="M35.9897 38.6917C35.9897 37.4729 36.999 36.4813 38.2396 36.4813H41.2646C42.5051 36.4813 43.5144 37.4729 43.5144 38.6917C43.5144 39.9105 42.5051 40.902 41.2646 40.902H38.2396C36.999 40.902 35.9897 39.9105 35.9897 38.6917ZM38.2396 38.1384C37.9343 38.1384 37.6764 38.3918 37.6764 38.6917C37.6764 38.9916 37.9343 39.245 38.2396 39.245H41.2646C41.5698 39.245 41.8278 38.9916 41.8278 38.6917C41.8278 38.3918 41.5698 38.1384 41.2646 38.1384H38.2396Z" fill="#BEC8F7"/>
</g>
<path id="Vector_39" d="M39.8184 39.245H41.2359C41.5 39.245 41.7446 39.0784 41.8104 38.8271C41.9032 38.4722 41.6152 38.1384 41.2648 38.1384H39.8184C39.3526 38.1384 38.9751 37.7675 38.9751 37.3098C38.9751 36.8522 39.3527 36.4813 39.8184 36.4813H41.2095C42.4278 36.4813 43.467 37.4104 43.5129 38.6065C43.5614 39.864 42.534 40.902 41.2648 40.902H39.8184C39.3526 40.902 38.9751 40.531 38.9751 40.0735C38.9751 39.616 39.3527 39.245 39.8184 39.245Z" fill="#E9EFFF"/>
<g id="Group_10">
<path id="Vector_40" d="M13.4851 38.6917C13.4851 37.4729 14.4944 36.4813 15.7349 36.4813H18.7599C20.0005 36.4813 21.0098 37.4729 21.0098 38.6917C21.0098 39.9105 20.0005 40.902 18.7599 40.902H15.7349C14.4944 40.902 13.4851 39.9105 13.4851 38.6917ZM15.735 38.1384C15.4298 38.1384 15.1718 38.3918 15.1718 38.6917C15.1718 38.9916 15.4298 39.245 15.735 39.245H18.7601C19.0653 39.245 19.3233 38.9916 19.3233 38.6917C19.3233 38.3918 19.0653 38.1384 18.7601 38.1384H15.735Z" fill="#BEC8F7"/>
</g>
<path id="Vector_41" d="M17.3136 39.245H18.7312C18.9952 39.245 19.2398 39.0784 19.3056 38.8271C19.3985 38.4722 19.1105 38.1384 18.76 38.1384H17.3136C16.8478 38.1384 16.4703 37.7675 16.4703 37.3098C16.4703 36.8522 16.8479 36.4813 17.3136 36.4813H18.7047C19.9231 36.4813 20.9621 37.4104 21.0082 38.6065C21.0566 39.864 20.0293 40.902 18.7599 40.902H17.3135C16.8477 40.902 16.4702 40.531 16.4702 40.0735C16.4703 39.616 16.8478 39.245 17.3136 39.245Z" fill="#E9EFFF"/>
</g>
</g>
<defs>
<clipPath id="clip0_17_853">
<rect width="57" height="56" fill="white" transform="translate(0 0.875)"/>
</clipPath>
</defs>
</svg>
