<svg width="72" height="71" viewBox="0 0 72 71" fill="none" xmlns="http://www.w3.org/2000/svg">
<g id="protections 1">
<g id="Group">
<g id="Group_2">
<g id="Group_3">
<path id="Vector" d="M46.3152 36.098L38.1094 42.6269C36.9906 43.5172 35.4086 43.528 34.2776 42.6535L25.8248 36.1182C21.9858 33.1501 19.8033 28.9785 19.8033 24.6087V16.1531C19.8033 14.968 20.4781 13.8861 21.5426 13.3649L34.8623 6.84347C35.737 6.41525 36.7621 6.42218 37.631 6.8626L50.4396 13.3544C51.4829 13.8833 52.1405 14.9538 52.1405 16.1234V24.7418C52.1405 29.034 50.0352 33.1382 46.3152 36.098Z" fill="#478CF7"/>
</g>
<g id="Group_4">
<path id="Vector_2" d="M50.4395 13.3544L49.308 12.7809C49.3429 12.9673 49.367 13.1564 49.367 13.35V21.9684C49.367 26.2603 47.2617 30.3645 43.5417 33.3243L35.3359 39.8532C34.2171 40.7435 32.6352 40.7543 31.5042 39.8799L23.0513 33.3445C22.9936 33.2999 22.9398 33.2525 22.8829 33.2075C23.7125 34.2642 24.6945 35.2443 25.8247 36.118L34.2776 42.6533C35.4086 43.5278 36.9906 43.5167 38.1094 42.6267L46.3152 36.0977C50.0352 33.1379 52.1405 29.0338 52.1405 24.7419V16.1237C52.1405 14.9539 51.4829 13.8833 50.4395 13.3544Z" fill="#377DE2"/>
</g>
<g id="Group_5">
<path id="Vector_3" d="M50.4396 13.3544L50.4154 13.3422C50.6304 13.7682 50.7541 14.2419 50.7541 14.7369V23.3554C50.7541 27.6473 48.6488 31.7514 44.9288 34.7112L36.723 41.2402C35.6042 42.1304 34.0222 42.1413 32.8912 41.2668L24.4383 34.7315C24.1141 34.4807 23.806 34.2184 23.5056 33.951C24.1934 34.7254 24.965 35.4534 25.825 36.1182L34.2779 42.6535C35.4089 43.528 36.9909 43.5169 38.1097 42.6269L46.3155 36.0979C50.0355 33.1381 52.1408 29.034 52.1408 24.7421V16.1236C52.1405 14.9538 51.4829 13.8833 50.4396 13.3544Z" fill="#2266D3"/>
</g>
<g id="Group_6">
<g id="Group_7">
<path id="Vector_4" d="M34.3783 31.816C33.7219 31.816 33.0657 31.5656 32.5648 31.065L27.5138 26.014C26.5123 25.0122 26.5123 23.3884 27.5138 22.3866C28.5156 21.3854 30.1394 21.3854 31.1412 22.3866L34.3783 25.6241L40.8027 19.1994C41.8045 18.1982 43.4284 18.1982 44.4301 19.1994C45.4316 20.2012 45.4316 21.825 44.4301 22.8268L36.1922 31.0647C35.691 31.5656 35.0348 31.816 34.3783 31.816Z" fill="#FFA91A"/>
</g>
</g>
<g id="Group_8">
<g id="Group_9">
<path id="Vector_5" d="M32.9916 24.2376L31.1412 22.3869L31.1398 22.3855L32.9916 24.2376Z" fill="#F79219"/>
</g>
<g id="Group_10">
<path id="Vector_6" d="M44.4301 19.1997C44.1844 18.9542 43.9009 18.7695 43.5989 18.6444C43.9839 19.5743 43.7991 20.684 43.0434 21.4403L34.8054 29.6783C34.3046 30.1789 33.6484 30.4293 32.9919 30.4293C32.3354 30.4293 31.6792 30.1789 31.1783 29.6783L32.5651 31.065C33.0659 31.5656 33.7221 31.816 34.3786 31.816C35.0351 31.816 35.6913 31.5656 36.1922 31.065L44.4301 22.827C45.4316 21.825 45.4316 20.2014 44.4301 19.1997Z" fill="#F79219"/>
</g>
</g>
<g id="Group_11">
<path id="Vector_7" d="M21.4668 25.1634C21.1617 25.1634 20.9121 24.9138 20.9121 24.6087C20.9121 24.3037 21.1617 24.0541 21.4668 24.0541C21.7746 24.0541 22.0215 24.3037 22.0215 24.6087C22.0215 24.9138 21.7746 25.1634 21.4668 25.1634ZM21.4668 22.9447C21.1617 22.9447 20.9121 22.6951 20.9121 22.39V16.1525C20.9149 15.3871 21.342 14.6993 22.0298 14.3609L35.3506 7.84054C35.6196 7.70742 35.9608 7.82668 36.0911 8.09293C36.227 8.3675 36.1133 8.70031 35.8387 8.83621L22.5179 15.3566C22.2184 15.5008 22.0187 15.8225 22.0215 16.1525V22.39C22.0215 22.6951 21.7746 22.9447 21.4668 22.9447Z" fill="#5E9CF7"/>
</g>
</g>
<g id="Group_12">
<g id="Group_13">
<g id="Group_14">
<g id="Group_15">
<path id="Vector_8" d="M66.097 45.4136C63.2847 47.6435 53.5999 55.1761 46.9631 58.5431C39.1226 62.523 31.5649 58.5431 25.4245 57.7915C23.4388 57.5474 21.6693 57.9773 20.1855 58.6734C18.344 59.5387 16.9378 60.809 16.1002 61.6965L16.0559 61.7048L15.2211 61.8213V46.6062C15.2211 46.6062 16.1224 45.0669 18.0944 43.7107C21.8191 41.1453 26.215 41.8165 30.4611 41.2729C34.3994 40.7681 38.2295 39.6449 41.7767 37.8532C42.0319 37.7229 42.2843 37.5925 42.5367 37.4566C42.6393 37.4039 42.7419 37.3485 42.8417 37.293C42.8972 37.2653 42.9527 37.2403 43.0109 37.2264C43.0137 37.2264 43.0165 37.2237 43.0192 37.2237C43.0913 37.2042 43.169 37.1931 43.2439 37.1987C43.7792 37.2347 44.1619 37.6979 44.2395 38.1971C44.295 38.541 44.3255 38.8794 44.3283 39.2178C44.3283 39.251 44.3283 39.2843 44.3311 39.3176C44.3227 42.1215 42.5893 44.6176 40.0877 45.1917L38.5762 45.5356C38.1075 45.6438 38.0714 46.3011 38.529 46.462C38.5623 46.4731 38.5956 46.4842 38.6289 46.4953C43.8984 48.3146 49.2567 47.1137 54.3959 44.8756C57.7933 43.3973 63.2293 39.6282 66.2939 43.7163C66.6822 44.2349 66.5907 45.0226 66.097 45.4136Z" fill="#FCC4AE"/>
</g>
<g id="Group_16">
<g id="Group_17">
<path id="Vector_9" d="M23.2671 57.3006C21.2813 57.0566 19.5119 57.4864 18.0281 58.1826C16.9256 58.7007 15.9829 59.3635 15.2211 60.0028V61.8213L16.0559 61.7048L16.1002 61.6965C16.9378 60.809 18.344 59.5388 20.1855 58.6735C21.6693 57.9773 23.4388 57.5475 25.4245 57.7915C26.0985 57.8739 26.7905 57.9968 27.4971 58.1424C26.0269 57.7851 24.6128 57.4654 23.2671 57.3006Z" fill="#F2AD97"/>
</g>
</g>
<g id="Group_18">
<g id="Group_19">
<path id="Vector_10" d="M66.2939 43.7162C65.5542 42.7294 64.6756 42.2036 63.7216 41.9897C63.6614 42.243 63.5299 42.4768 63.3236 42.6401C60.5113 44.87 50.8265 52.4026 44.1896 55.7696C36.3491 59.7495 28.7915 55.7696 22.6511 55.018C20.6653 54.7739 18.8959 55.2038 17.4121 55.8999C16.5889 56.2868 15.8584 56.755 15.2211 57.2334V61.8212L16.0559 61.7047L16.1002 61.6964C16.9378 60.8089 18.344 59.5387 20.1855 58.6734C21.6693 57.9772 23.4388 57.5473 25.4245 57.7914C31.5649 58.543 39.1226 62.5229 46.9631 58.543C53.5999 55.1761 63.2847 47.6434 66.097 45.4136C66.5907 45.0225 66.6822 44.2348 66.2939 43.7162Z" fill="#F2AD97"/>
</g>
</g>
<g id="Group_20">
<g id="Group_21">
<g id="Group_22">
<g id="Group_23">
<path id="Vector_11" d="M19.2739 61.2537L16.1008 61.6977L16.0562 61.7041L15.2216 61.8214L14.1511 61.9706C13.4608 62.0677 12.8243 61.5854 12.7272 60.895L10.3348 43.7865C10.2378 43.0962 10.719 42.4597 11.4093 42.3627L16.5321 41.6454C16.8588 41.6008 17.1752 41.6837 17.4265 41.8612C17.7047 42.0526 17.9038 42.3577 17.956 42.7213L18.0938 43.7114L19.8699 56.4079L20.1864 58.6738L20.3483 59.8312C20.4454 60.5201 19.9631 61.1566 19.2739 61.2537Z" fill="#F1F2F2"/>
</g>
</g>
<g id="Group_24">
<path id="Vector_12" d="M20.3483 59.8309L20.1864 58.6735L19.8699 56.4076L18.0938 43.7111L17.956 42.721C17.9035 42.3574 17.7047 42.0523 17.4265 41.8609C17.196 41.6981 16.9098 41.6202 16.6122 41.6418L16.7071 42.3241L18.4832 55.0206L18.7996 57.2865L18.9616 58.4439C19.0587 59.1328 18.5764 59.7696 17.8872 59.8667L14.7141 60.3107L14.6694 60.3171L13.8349 60.4344L12.7644 60.5836C12.7372 60.5875 12.7111 60.5847 12.6842 60.5866L12.7272 60.8948C12.8243 61.5851 13.4608 62.0674 14.1511 61.9703L15.2216 61.8211L16.0561 61.7038L16.1008 61.6974L19.2739 61.2534C19.9631 61.1566 20.4454 60.5201 20.3483 59.8309Z" fill="#E6E7E8"/>
</g>
<g id="Group_25">
<path id="Vector_13" d="M7.12101 63.0982H12.8018C13.7476 63.0982 14.5142 62.3316 14.5142 61.3859V41.3836C14.5142 40.4378 13.7476 39.6713 12.8018 39.6713H7.12101C6.17527 39.6713 5.40869 40.4378 5.40869 41.3836V61.3859C5.40841 62.3314 6.17527 63.0982 7.12101 63.0982Z" fill="#478CF7"/>
</g>
<g id="Group_26">
<path id="Vector_14" d="M13.1 39.6985C13.1169 39.7956 13.1277 39.8946 13.1277 39.9966V59.9989C13.1277 60.9447 12.3612 61.7113 11.4154 61.7113H5.7343C5.63252 61.7113 5.53323 61.7007 5.43616 61.6835C5.57733 62.487 6.27706 63.098 7.12102 63.098H12.8019C13.7476 63.098 14.5142 62.3314 14.5142 61.3857V41.3833C14.5142 40.5397 13.9032 39.8399 13.1 39.6985Z" fill="#377DE2"/>
</g>
</g>
<g id="Group_27">
<g id="Group_28">
<path id="Vector_15" d="M11.7284 57.0149C11.9606 56.0324 11.3525 55.0477 10.37 54.8155C9.38755 54.5832 8.40285 55.1914 8.17062 56.1739C7.93839 57.1563 8.54656 58.141 9.52901 58.3733C10.5115 58.6055 11.4962 57.9973 11.7284 57.0149Z" fill="white"/>
</g>
</g>
<g id="Group_29">
<path id="Vector_16" d="M10.9456 55.0389C11.1279 55.3232 11.2349 55.6605 11.2349 56.0232C11.2349 57.033 10.4165 57.8515 9.40666 57.8515C9.04389 57.8515 8.70664 57.7444 8.42236 57.5622C8.74741 58.0692 9.3143 58.4062 9.96134 58.4062C10.9712 58.4062 11.7896 57.5877 11.7896 56.5779C11.7896 55.9312 11.4526 55.364 10.9456 55.0389Z" fill="#E6E7E8"/>
</g>
</g>
</g>
</g>
</g>
</g>
</g>
</svg>
